<?xml version="1.0" encoding="utf-8"?>
<!-- Generator: Adobe Illustrator 22.0.1, SVG Export Plug-In . SVG Version: 6.00 Build 0)  -->
<svg version="1.1" id="Layer_1" xmlns="http://www.w3.org/2000/svg" xmlns:xlink="http://www.w3.org/1999/xlink" x="0px" y="0px"
	 viewBox="0 0 360 223.7" style="enable-background:new 0 0 360 223.7;" xml:space="preserve">
<style type="text/css">
	.st0{fill:#E3BD4A;}
	.st1{fill:#BB4F24;}
	.st2{fill:#4984D6;}
</style>
<polygon class="st0" points="22,96.6 21.9,96.4 21.9,96.3 21.9,96 22,95.7 22,95.4 22,95.4 22,95.3 22,95.2 22,95 22.1,94.9 
	22.1,94.9 22.1,94.8 22.2,94.8 22.2,94.8 22.4,94.4 22.4,94.3 22.4,94.2 22.3,94 22.3,93.8 22.3,93.7 22.3,93.6 22.4,93.6 
	22.4,93.5 22.4,93.4 22.5,93.3 22.5,93.2 22.9,92.2 23,92.1 23.1,91.7 23.1,91.6 23.2,91.3 23.4,91.1 23.5,90.9 23.5,90.8 
	23.6,90.8 23.6,90.7 23.6,90.6 23.7,90.6 23.9,90.4 24,90.4 24.2,90.3 24.2,90.2 24.3,90.1 24.4,90 24.5,89.9 24.6,89.8 24.9,89.8 
	25.1,89.8 25.1,89.8 25.2,89.8 25.3,89.8 25.3,89.8 25.5,89.7 25.6,89.6 25.6,89.5 25.7,89.2 25.7,89.2 25.7,89.1 25.7,89 25.7,89 
	25.8,88.8 25.7,88.6 25.7,88.5 25.6,88.2 25.6,88.1 25.6,88 25.5,88 25.5,87.9 25.5,87.8 25.5,87.8 25.5,87.6 25.5,87.5 25.5,87.4 
	25.5,87.3 25.6,87.3 25.6,87.1 25.6,87 25.7,86.9 25.8,86.7 25.9,86.5 25.9,86.4 26,86.1 26,85.9 26,85.7 26,85.7 26,85.5 26,85.3 
	25.9,85.2 25.9,85.1 25.9,85.1 25.6,84.7 25.5,84.5 25.5,84.3 25.4,84.3 25.2,84.2 25,84.1 24.9,84.1 24.9,83.9 24.9,83.7 
	24.9,83.5 24.9,83.5 25,83.3 25.4,82.9 25.6,82.8 25.6,82.7 25.8,82.4 26,82.1 26,81.9 26.2,81.7 26.4,81.6 26.4,81.5 26.5,81.4 
	26.7,81.3 26.7,81.3 26.9,81.2 27.2,81.1 27.6,80.9 27.7,80.9 27.7,80.8 27.7,80.8 27.8,80.8 27.9,80.7 28.5,80.6 28.8,80.6 
	28.8,80.5 29,80.5 29,80.5 29.1,80.5 29.1,80.4 29.1,80.4 29.3,80.4 29.9,80.4 30.1,80.4 30.7,80.5 30.8,80.5 30.8,80.5 30.9,80.5 
	31,80.5 31,80.5 31.7,79.9 31.9,79.9 32.3,79.6 32.7,79.3 32.8,79.2 32.8,79.1 32.8,79.1 33,78.5 33.1,78.3 33.1,78 33.1,77.8 
	33,77.4 33,77.4 33,77.2 33,77 33.2,76.5 33.2,76.3 33.3,76.2 33.4,76 33.5,75.8 33.5,75.7 33.6,75.5 33.6,75.4 33.7,75.3 
	33.7,75.2 33.7,75.2 33.7,75 33.7,74.8 33.7,74.8 33.7,74.7 33.6,74.6 33.6,74.5 33.5,74.4 33.5,74.3 33.5,74.2 33.5,74.1 33.5,74 
	33.5,74 33.6,73.7 33.7,73.6 33.7,73.6 33.7,73.5 34.1,73.2 34.4,72.9 34.6,72.7 34.6,72.6 34.8,72.3 34.9,72 35,71.9 35,71.8 
	35.1,71.8 35.2,71.7 35.2,71.6 35.5,71.5 35.6,71.3 35.8,71.1 35.8,71 35.9,70.9 35.9,70.8 35.9,70.8 35.9,70.7 36.1,70.6 
	36.1,70.6 36.1,70.5 36.2,70.5 36.3,70.4 36.7,70.3 36.8,70.2 37.1,70 37.2,70 37.2,69.8 37.4,69.4 37.4,69.1 37.5,68.8 37.6,68.7 
	37.6,68.6 37.6,68.4 37.5,68.2 37.4,67.9 37.4,67.8 37.5,67.5 37.6,67.2 37.8,66.8 37.8,66.6 37.8,66.3 37.8,65.9 37.9,65.7 
	37.9,65.6 37.8,65.3 37.8,65.1 37.8,64.7 37.7,64.4 37.7,64.3 37.7,63.9 37.8,63.9 37.8,63.5 37.8,63.5 37.7,63.3 37.6,63.2 
	37.5,62.9 37.4,62.7 37.2,62.6 37.1,62.2 36.9,61.9 36.9,61.8 36.9,61.7 36.8,61.6 36.8,61.5 36.7,61.5 36.7,61.3 36.6,61.2 
	36.5,61.1 36.5,61.1 36.4,60.9 36.3,60.9 36.1,60.9 36.1,60.8 36.1,60.8 36,60.9 35.9,60.9 35.6,60.9 35.5,60.9 35.2,60.8 
	34.8,60.1 34.8,59.9 34.7,59.9 34.5,59.6 34.3,59.3 34.1,59 33.8,58.7 33.6,58.4 33.4,58.2 33.3,58.1 33.2,58 33.2,57.8 33.2,57.7 
	33.4,57.5 33.5,57.2 33.6,57 33.8,56.4 33.9,56.3 34,56 34.3,55.8 34.3,55.6 34.4,55.4 34.4,54.6 34.4,54.6 34.5,54.4 34.5,53.6 
	34.6,53.4 34.6,53.4 34.6,53.3 34.6,53.3 34.7,53.1 34.8,52.9 35,52.7 35,52.6 35,52.4 35,52.1 35,52 35.1,51.8 35.1,51.7 
	35.2,51.6 35.2,51.5 35.4,51.4 35.4,51.4 35.5,51.4 35.7,51.2 35.8,51.2 36.1,51.2 36.1,51.2 36.3,51.2 36.7,51 36.7,51 36.9,50.9 
	36.9,50.8 37,50.8 37,50.8 37.1,50.9 37.3,51 37.7,51.2 37.8,51.2 38.3,51.4 38.4,51.4 38.5,51.3 38.6,51.2 38.9,51.1 39.1,51 
	39.1,51 39.2,51 39.4,50.8 39.4,50.8 39.7,50.6 39.9,50.5 40,50.4 40,50.4 40.2,50.3 40.3,50.2 40.4,50.2 40.4,50.2 40.6,50.1 
	40.7,50.1 40.8,50.1 40.9,50.1 40.9,50.1 41.2,50.2 41.3,50.2 41.7,50.2 42.3,50.2 42.4,50.2 42.5,50.3 42.6,50.3 42.7,50.3 
	43.3,50.4 43.6,50.3 44,50.2 44.6,50.2 44.9,50.1 45.3,49.9 45.5,50 45.5,50 45.9,49.9 46,49.8 46.2,49.5 46.4,49.3 46.5,49.2 
	46.8,49 47.2,48.8 47.2,48.7 47.2,48.6 47.3,48.2 47.5,48.1 47.5,48 47.6,48 47.7,48 47.7,48 47.9,47.9 48,47.9 48.1,47.9 
	48.3,47.8 48.5,47.6 48.6,47.6 48.8,47.6 49,47.5 49.1,47.6 49.2,47.6 49.7,47.8 50,47.8 50.1,47.8 50.1,47.8 50.4,47.8 50.7,47.8 
	50.8,47.8 51.2,47.6 51.4,47.4 51.5,47.3 51.6,47.2 51.6,47.1 51.8,46.8 51.9,46.7 51.9,46.7 52.1,46.6 52.1,46.5 52.2,46.5 
	52.3,46.4 52.4,46.2 52.5,46.1 52.5,46.1 52.7,46 52.9,45.9 53.3,45.7 53.4,45.7 53.6,45.6 53.8,45.5 54.2,45.4 54.3,45.3 
	54.4,45.1 54.4,45.1 54.5,44.9 54.5,44.9 54.5,44.4 54.4,44.3 54.4,44 54.3,43.3 54.3,43.1 54.3,43.1 54.4,43 54.5,42.7 54.5,42.7 
	54.5,42.4 54.6,42.2 54.6,42 54.6,41.9 54.6,41.8 54.7,41.8 54.7,41.7 54.7,41.7 55,41.5 55.1,41.4 55.1,41.4 55.1,41.3 55.2,41.3 
	55.2,41.2 55.2,41.1 55.2,41.1 55.2,41 55.2,40.9 55.2,40.8 55.2,40.7 55.1,40.4 55.1,40.2 55.1,40 55.1,39.8 55.2,39.5 55.2,39.5 
	55.5,39.2 56.1,38.6 56.2,38.5 56.5,38.4 56.7,38.3 56.9,38.1 56.9,38.1 57.1,38 57.6,37.6 57.8,37.6 58,37.5 58,37.5 58.1,37.4 
	58.2,37.4 58.6,37.2 58.7,37.1 58.8,37 58.8,36.9 58.7,36.5 58.7,36.3 58.7,36.2 58.7,36 58.7,36 58.7,36 58.7,35.8 58.7,35.7 
	58.8,35.6 58.9,35.6 58.9,35.5 58.9,35.4 59,35.2 59,35 59,34.9 59,34.8 59.1,34.8 59.1,34.7 59.1,34.5 59.1,34.4 59.2,34.3 
	59.2,34.2 59.5,33.7 59.5,33.4 59.5,33.4 59.5,33.3 59.5,33 59.6,32.6 59.6,32.5 59.6,32.4 59.5,32.3 59.5,32.2 59.3,32.1 59.3,32 
	59.2,31.8 59.3,31.6 59.3,31.4 59.4,31.1 59.5,30.9 59.7,30.7 59.7,30.6 59.7,30.4 59.9,30 59.9,29.8 59.8,29.6 59.8,29.4 
	59.8,29.4 59.8,29.3 59.7,29.3 59.7,29.2 59.7,29.2 59.7,29.1 59.7,29 59.7,28.9 59.6,28.8 59.6,28.8 59.5,28.7 59.4,28.5 
	59.3,28.4 59.2,28 59.2,27.8 59.2,27.6 59.2,27.5 59.1,27.1 59.3,26.7 59.3,26.6 59.3,26.5 59.3,26.4 59.3,26.3 59.3,26.1 59.3,26 
	59.3,25.9 59.3,25.9 59.3,25.7 59.3,25.6 59.2,25.4 59.1,25.4 59.1,25.3 58.6,25.3 58.6,25.3 58.4,25.2 58.4,25.1 58.2,25.1 
	58.2,24.7 58.1,24.5 58.1,24.4 58,24.3 58,24.3 57.8,24.1 57.6,23.9 57.3,23.7 56.9,23.5 56.8,23.5 56.4,23.4 56.1,23.3 55.7,23 
	55.6,22.9 55.5,22.9 55.4,22.8 55.1,22.7 54.8,22.4 54.5,22.3 54,22.3 54,22.2 53.8,22.1 53.6,21.9 53.1,21.5 53,21.4 53,21.3 
	53,21.2 52.9,21 52.6,20.7 52.5,20.5 52.4,20.5 52.4,20.4 52.3,20.2 52.3,20 52.2,19.9 52.1,19.5 52.1,19.3 52.1,19.2 52.1,19.1 
	52.2,19.1 52.2,19 52.3,18.9 52.3,18.7 52.3,18.5 52.3,18.3 52.3,18.1 52.3,18.1 52.5,18 52.5,17.9 52.5,17.9 52.5,17.8 52.4,17.7 
	52.3,17.6 52.2,17.5 52.1,17.4 52.1,17.4 51.8,16.8 51.8,16.7 51.7,16.7 51.7,16.6 51.6,16.6 51.5,16.6 51.3,16.4 51.2,16.2 
	51.2,16.2 51.2,16.2 51,16 51,15.9 51,15.8 50.9,15.7 50.8,15.6 50.7,15.6 50.7,15.6 50.6,15.6 50.5,15.5 50.3,15.3 50.2,15.2 
	50.1,15.2 50.1,15.1 50,15 49.7,14.9 48.9,14.5 48.7,14.4 48.6,14.3 48.6,14.2 48.6,14 48.6,13.8 48.4,13.6 48.4,13.5 48.3,13.4 
	48,13.4 47.9,13.3 47.8,13.2 47.3,13.1 46.9,12.8 46.4,12.4 46.3,12.3 46.1,12 46.1,11.9 46.1,11.6 46.1,11.6 46.2,11.4 46.4,11 
	46.5,11 46.6,11 47.1,11 47.2,11 47.3,11 47.8,11 48.4,11 48.7,11 48.8,11 49,11 49.4,11 50.5,11 50.6,11 50.8,11 50.9,11 51.9,11 
	52.2,11 52.7,11 52.9,11 53.7,11 53.8,11 53.9,11 55.4,11 55.5,11 56.4,11 56.4,11 56.5,11 56.9,11 56.9,11 57.6,11 57.7,11 
	58.1,11 58.2,11 58.3,11 58.5,11 58.7,11 59.3,11 59.8,11 60.9,11 61.1,11 61.1,11 61.3,11 61.7,11 63.2,11 63.2,11 63.3,11 
	63.7,11 63.7,11 64.1,11 64.6,11.1 64.8,11.1 64.9,11.1 65,11.1 65.1,11.1 65.6,11.1 68,11.1 69,11.1 69.1,11.1 69.2,11.1 
	69.6,11.1 69.8,11.1 70.3,11.1 70.6,11.1 70.8,11.1 71.2,11.1 71.9,11.1 72,11.1 72.6,11.1 73.1,11.1 73.2,11.1 74,11.1 74.3,11.1 
	74.4,11.1 74.4,11.1 74.6,11.1 74.9,11.1 74.9,11.1 75.1,11.2 75.3,11.2 76.5,11.2 77.3,11.2 77.5,11.2 79.1,11.2 79.2,11.2 
	79.2,11.2 79.7,11.2 80.7,11.2 80.8,11.2 82.7,11.2 83.4,11.2 83.8,11.2 83.9,11.2 84.4,11.2 84.5,11.2 85.2,11.2 86,11.2 
	86.1,11.2 86.3,11.2 87.1,11.2 87.1,11.2 87.3,11.2 87.4,11.2 87.8,11.2 88.4,11.2 88.6,11.2 88.7,11.2 88.8,11.2 88.9,11.2 
	89,11.2 89.1,11.2 89.1,11.2 89.3,11.2 89.4,11.2 89.5,11.2 89.7,11.2 89.8,11.2 90,11.2 90.2,11.2 90.7,11.2 90.8,11.2 92.1,11.2 
	92.1,11.2 93.3,11.2 94.2,11.3 95.4,11.3 95.7,11.3 95.9,11.3 96.3,11.3 96.5,11.3 96.8,11.3 97.4,11.2 97.6,11.2 97.8,11.2 
	97.9,11.2 98.4,11.2 99.7,11.1 100,11.1 100.1,11.1 100.2,11.1 100.7,11.1 101.5,11.1 102.6,11 102.9,11 103.8,11 104.7,11 105,11 
	105.8,11 106,11 106.2,11 106.3,11 107.2,11 107.9,11 108.2,11 108.4,11 109,11 109.2,10.9 109.3,10.9 109.7,10.9 109.9,10.9 
	110,10.9 110.1,10.9 110.3,10.9 110.4,10.9 110.6,10.8 110.7,10.8 111,10.8 111.2,10.8 111.4,10.8 111.5,10.8 111.5,10.8 
	111.6,10.8 112,10.8 112.3,10.8 112.6,10.8 112.9,10.8 113.4,10.8 113.6,10.8 114.1,10.8 114.3,10.8 114.4,10.8 114.6,10.8 
	114.8,10.8 115.2,10.8 115.3,10.8 115.4,10.8 115.5,10.8 115.6,10.8 115.7,10.8 116,10.8 117.3,10.8 117.6,10.8 118.2,10.8 
	118.7,10.8 119.6,10.7 120,10.7 120.1,10.7 120.4,10.7 120.4,10.7 120.5,10.7 121.2,10.7 121.3,10.7 121.6,10.7 121.8,10.7 
	122,10.7 122.2,10.7 122.3,10.7 122.8,10.7 122.8,11.2 122.8,11.4 122.8,11.7 122.8,12.2 122.8,12.3 122.8,12.6 122.8,13 
	122.8,13.4 122.8,13.6 122.7,14 122.7,14 122.7,14.4 122.7,14.7 122.6,15 122.5,15.4 122.4,15.4 122.4,15.5 122.3,15.6 122.3,15.8 
	122.2,15.8 122.2,16 122.2,16.2 122.2,16.4 122.1,16.7 122,16.8 122,16.9 122,17 122,17.7 122,17.8 122,17.9 122,17.9 122,18 
	122.1,18.5 122.1,18.5 122.1,18.6 122.2,18.7 122.2,19 122.2,19 122.3,19.3 122.4,19.5 122.4,19.6 122.5,19.8 122.6,20.1 
	122.7,20.4 122.8,20.7 122.8,20.7 122.9,20.9 122.9,21.1 123,21.1 123,21.2 123,21.3 123.1,21.4 123.1,21.4 123.3,21.7 123.4,21.9 
	123.5,22.1 123.7,22.3 123.7,22.5 123.9,22.8 124.1,23 124.2,23.3 124.4,23.7 124.4,23.7 124.4,23.8 124.6,24.1 124.7,24.2 
	124.8,24.4 125,24.7 125.2,24.9 125.2,25 125.3,25.1 125.4,25.2 125.4,25.3 125.5,25.4 125.7,25.5 125.7,25.5 125.8,25.6 126,25.8 
	126.1,25.9 126.3,26.1 126.4,26.1 126.4,26.2 126.4,26.3 126.5,26.4 126.5,26.5 126.6,26.5 126.6,26.6 126.6,26.7 126.6,26.7 
	126.7,26.8 126.7,26.9 126.7,27 126.6,27.1 126.7,27.2 126.7,27.4 126.7,27.6 126.8,27.7 126.8,27.8 126.8,27.8 126.8,27.9 
	126.8,28 126.9,28.2 126.9,28.2 126.9,28.3 127,28.4 127,28.6 127,28.7 127,28.8 127.1,28.8 127.1,29 127.2,29 127.2,29.1 
	127.2,29.2 127.2,29.2 127.2,29.2 127.2,29.3 127.3,29.4 127.3,29.5 127.4,29.7 127.5,30 127.5,30.1 127.5,30.2 127.5,30.3 
	127.6,30.6 127.7,30.8 127.7,31 127.8,31 127.8,31.2 127.9,31.2 127.9,31.4 127.9,31.6 128,31.9 128.1,32.2 128.1,32.2 128.1,32.3 
	128.1,32.4 128.1,32.4 128.1,32.5 128.2,32.6 128.3,32.6 128.3,32.6 128.3,32.6 128.3,32.7 128.3,32.8 128.4,32.8 128.4,32.8 
	128.5,32.8 128.5,32.9 128.5,33 128.4,33 128.4,33.1 128.4,33.2 128.3,33.2 128.3,33.3 128.3,33.6 128.4,33.8 128.5,34.4 
	128.5,34.4 128.6,34.6 128.7,34.9 128.8,35.2 128.8,35.3 128.8,35.4 128.9,35.4 129.1,35.6 129.2,35.8 129.2,35.9 129.2,36 
	129.3,36 129.3,36 129.4,36 129.4,36.1 129.4,36.2 129.4,36.2 129.4,36.2 129.4,36.3 129.4,36.4 129.4,36.4 129.5,36.5 129.5,36.7 
	129.6,36.8 129.6,37 129.7,37 129.8,37.2 129.8,37.2 129.9,37.5 130,37.6 130.1,37.6 130.1,37.7 130.1,37.7 130.3,37.8 130.4,37.9 
	130.5,38 130.8,38.1 130.9,38.7 131,39.1 131,39.2 131,39.6 131,39.7 131,39.7 131,39.9 131,40 131,40.1 131,40.3 131,40.4 
	131,40.5 131,40.9 131,41.4 131,41.5 131.1,41.6 131.1,41.7 131.1,41.8 131.1,42 131.1,42.4 131.1,42.5 131.1,42.5 131.1,42.7 
	131.1,42.9 131.1,43 131.1,43.1 131.1,43.2 131.1,43.3 131.1,43.4 131.1,43.5 131.1,43.7 131.2,43.7 131.2,43.9 131.2,44 
	131.2,44.1 131.2,44.1 131.2,44.3 131.2,44.4 131.2,44.5 131.2,44.5 131.2,44.7 131.2,44.8 131.2,45.1 131.2,45.2 131.2,45.3 
	131.2,45.3 131.2,45.4 131.2,45.6 131.2,45.7 131.2,45.7 131.2,45.8 131.2,45.9 131.2,45.9 131.2,46.1 131.2,46.1 131.2,46.3 
	131.2,46.3 131.2,46.5 131.2,46.6 131.2,47.1 131.2,47.4 131.2,47.4 131.2,47.5 131.2,47.6 131.2,47.8 131.2,48.2 131.2,48.3 
	131.2,48.4 131.2,48.5 131.3,49.1 131.3,49.5 131.3,49.8 131.3,50.8 131.4,51.4 131.4,51.7 131.4,51.8 131.4,51.9 131.4,52 
	131.4,52.1 131.4,52.8 131.4,53 131.4,53.1 131.4,53.2 131.4,53.3 131.4,54.9 131.4,55.5 131.5,56.6 131.5,56.9 131.5,58.2 
	131.6,58.7 131.6,59.1 131.6,59.4 131.6,59.8 131.6,59.9 131.6,60 131.6,60.1 131.6,60.3 131.6,60.5 131.6,60.8 131.6,61.5 
	131.6,62.5 131.6,62.7 131.6,62.9 131.8,65.1 131.8,65.6 131.8,66 131.8,66.6 131.8,68 131.8,68.3 131.9,69.3 131.9,69.5 
	131.9,69.9 131.9,70 131.9,70.4 131.9,70.5 131.9,71 132,71.4 132,71.5 132,72.8 132,73.7 132,74.3 132,75 132,75.3 132.1,75.8 
	132.1,77.5 132.1,79 132.1,79.9 132.2,80.6 132.2,81.5 132.2,81.7 132.2,82.2 132.3,83.3 132.3,84.9 132.3,85.5 132.3,85.5 
	132.3,86.1 132.4,88.8 132.4,90.2 132.4,90.9 132.4,91.9 132.5,93.1 132.5,93.9 132.5,94.4 132.5,94.6 132.5,95.2 132.5,95.8 
	132.5,96 132.5,96.1 132.5,96.6 132.5,96.9 132.5,97.7 132.5,97.8 132.5,97.9 132.5,98.3 132.6,98.8 132.6,98.9 132.6,99.4 
	132.6,101.1 132.7,102.8 132.7,103.2 132.7,103.3 132.7,103.7 132.7,103.7 132.7,104.1 132.7,104.1 132.7,104.3 132.7,104.9 
	132.7,105.1 132.7,105.2 132.7,106.6 132.8,107.6 132.9,109.8 132.9,110.2 132.9,110.5 132.9,110.8 132.9,111.4 132.9,112.7 
	132.9,113.2 133,114.1 133,114.6 133.1,115.7 133.1,116.4 133.1,116.8 133.1,117.8 133.1,118.9 133.2,119.5 133.2,120.1 
	133.2,120.5 133.2,120.8 133.2,121.1 133.2,122 133.2,122.1 133.2,122.3 133.2,122.7 133.2,123 133.2,123.1 133.3,123.7 
	133.3,124.1 133.3,124.2 133.3,124.9 133.4,127.5 133.4,127.5 133.1,127.3 132.9,127.6 132.9,127.6 132.8,127.8 132.7,127.8 
	132.4,127.8 132.3,127.8 132.1,127.8 132,127.8 131.8,128 131.8,128 131.8,128.1 131.6,128.5 131.5,128.8 131.6,129.4 131.6,129.4 
	131.6,129.5 131.5,129.6 131.2,130 131.3,130.2 131.4,130.8 131.4,130.8 131.8,131.3 132,131.4 132.1,131.8 132.3,132.4 
	132.3,132.6 132,133 132,133.1 131.5,133.6 131.4,133.6 131,134 130.7,134.2 130.5,134.3 130.5,134.6 130.5,134.7 130.4,135.2 
	130.4,135.4 130.5,135.8 130.8,136.1 130.8,136.2 130.8,136.3 130.8,136.4 130.8,136.6 130.9,136.6 131,136.8 131.2,136.8 
	131.2,137 131.2,137 131.2,137.2 131.4,137.4 131.5,137.4 131.6,137.5 131.8,137.6 131.9,137.6 132.1,137.8 132.1,138 132.3,138 
	132.5,138.3 132.5,138.7 132.5,139.2 132.7,139.7 132.7,139.8 132.5,140.3 132.4,140.3 132.4,140.4 132.5,140.9 133.2,141.3 
	133.4,141.3 133.8,141.5 134,141.6 134.2,142 134.3,142 134.3,142.1 134.4,142.1 134.4,142.3 134.4,142.4 134.3,142.5 134.3,142.9 
	134.2,142.9 134.2,143.2 134.2,143.3 134,143.9 133.8,144.1 133.5,144.3 133.5,144.5 133.4,145.1 133.3,145.5 133.4,145.7 
	133.8,145.9 133.8,145.9 134.1,146.1 134.2,146.7 134.2,146.9 134.2,147.1 134.1,147.2 134.2,147.3 134.2,147.4 135,148.6 
	134.9,149 134.9,149.2 134.9,149.4 134.9,149.4 135,150 135,150 134.9,150.2 134.9,150.3 134.7,150.5 134.7,150.6 134.5,151 
	134.4,151.6 134.4,151.7 134.4,151.8 134.2,152.1 134.2,152.2 134.1,152.2 134.1,152.2 134,152.3 133.7,152.4 133.2,152.6 
	132.3,152.8 132.1,153.2 131.8,153.8 131.7,153.8 131.6,153.9 131.6,154 131.6,154.1 131.6,154.4 131.6,154.7 131.5,155.1 
	131.4,155.2 131.5,155.4 131.6,155.5 131.6,155.6 131.5,155.8 131.4,155.8 131.4,155.8 131.3,155.8 131.2,155.8 131.1,156 
	130.8,156.6 130.9,156.9 130.9,157 130.8,157.2 130.6,157.6 130.7,158.3 130.8,158.5 130.8,158.7 130.7,158.9 130.5,159 
	130.1,159.2 129.7,159.6 129.1,159.9 128.7,160 128.5,160.1 128.4,160.1 128.3,160.4 128.3,160.5 128.3,160.7 128.5,160.9 
	128.7,161.2 128.7,161.3 128.5,161.5 128.4,161.6 128.4,161.7 128.3,162.1 128.3,162.1 128.3,162.3 128.3,162.4 128.3,162.6 
	128.1,162.9 128,163 127.9,163.1 127.9,163.2 127.8,163.3 127.4,163.9 127.4,164 127.4,164.1 127.3,164.1 126.8,164.3 126.8,164.3 
	126.6,164.3 126.6,164.4 126.5,164.5 126.1,165 126.1,165.1 126.1,165.1 125.9,165.7 125.9,165.7 125.9,165.8 125.9,166.4 
	125.9,166.5 125.9,166.8 125.7,167 125.5,167.1 125.3,167.1 125.1,167.1 125,166.9 124.8,166.8 124.6,166.7 124.5,166.8 124.4,167 
	124.4,167.2 124.3,167.3 124.2,167.5 124,167.7 123.9,167.7 123.7,167.7 123.6,167.7 123.5,167.5 123.5,167.3 123.3,167.2 
	123.1,167.1 122.9,167.2 122.6,167.7 122.5,167.8 122.5,168 122.7,168.4 122.7,168.4 122.6,168.8 122.4,169 122.3,169.1 
	122.3,169.2 122,169.2 121.8,169.3 121.8,169.4 121.7,169.5 121.7,169.8 121.7,170 121.7,170.2 121.9,170.6 122.4,171.1 123,171.6 
	123.3,171.7 123.4,171.9 123.5,172 123.5,172.1 123.5,172.2 123.5,172.4 123.4,172.6 123.2,172.7 123.1,172.9 123.1,173 
	122.9,173.1 122.9,173.2 122.8,173.2 122.2,173.4 122,173.4 121.5,173.9 121.5,174 121.3,174.2 121.3,174.6 121.4,174.8 
	121.5,174.9 121.7,175.2 121.7,175.4 121.6,175.9 121.2,176.1 121.1,176.2 120.7,176.3 120.6,176.6 120.6,176.6 120.6,176.8 
	120.5,177.1 120.5,177.2 120.6,177.6 120.6,177.8 121,178.9 121,179.3 120.8,179.5 120.6,179.8 120.4,180.1 120.4,180.1 
	120.2,180.7 120.2,180.8 120.4,181.2 120.4,181.3 120.6,181.7 120.5,181.9 120.4,182 120.2,182.2 120,182.4 120,182.5 119.9,182.6 
	119.8,182.8 119.8,183.1 119.8,183.4 120,183.7 120,183.8 120.1,183.9 120.2,183.9 120.2,184.1 120.2,184.3 120.1,184.5 120,184.7 
	120,184.8 120,185 120.1,185.1 120.1,185.1 120.2,185.2 120.2,185.2 120.4,185.3 120.7,185.3 120.7,185.5 120.6,185.6 120.5,185.8 
	120.4,186.1 120.4,186.4 120.4,186.5 120.4,186.5 120.4,186.6 120.4,186.7 120.4,186.7 120.3,186.7 120.1,187.2 119.8,187.6 
	119.7,187.8 119.5,188 119.3,188.1 119.1,188.2 119.1,188.2 118.8,188.4 118.7,188.6 118.5,188.6 118.2,188.8 118.1,188.8 
	118.1,188.9 118,189 117.8,189.3 117.8,189.4 117.8,189.4 117.8,189.6 117.6,189.6 117.6,189.7 117.4,189.9 117.2,190.2 
	117.1,190.6 117.1,190.6 117.1,190.7 117.1,190.8 117.1,190.8 117.1,190.9 117.1,191 117.1,191.2 117.1,191.5 117.1,191.7 
	117.1,191.8 117.2,192.1 117.6,192.8 117.6,193 117.6,193.2 117.6,193.3 117.6,193.5 117.8,193.7 117.9,193.9 117.9,194 
	118.2,194.2 118.4,194.4 118.7,194.6 118.8,194.8 119.1,195.2 119.2,195.4 119.3,195.4 119.3,195.4 119.5,195.5 119.6,195.6 
	119.8,195.7 119.9,196.1 120,196.1 120,196.2 120,196.4 120,196.4 120,196.8 119.9,197 120,197 120,197.1 120,197.2 119.9,197.2 
	119.8,197.4 119.7,197.3 119.5,197.4 119.5,197.6 119.4,197.7 119.3,197.8 119.2,197.8 119.2,197.7 119.1,197.7 118.6,197.7 
	118.1,197.8 118,197.8 117.9,197.8 117.4,197.9 117.2,198 117.2,198 116.9,198 116.7,198.1 116.3,198.2 116.3,198.2 115.8,198.2 
	115.4,198.3 115.3,198.3 114.9,198.3 114.5,198.3 113.7,198.5 113.6,198.5 113.3,198.8 113.2,198.8 113.2,198.8 112.8,199 
	112.7,199.1 112.7,199.1 112.7,199.2 112.6,199.2 112.5,199.2 112.3,199.4 112.2,199.5 112.1,199.7 112.1,199.7 112,199.8 
	111.9,199.9 111.7,200.1 111.5,200.3 111.4,200.4 111.3,200.5 111.1,200.5 111,200.4 111,200.2 110.6,199.9 110.4,199.7 
	110.1,199.7 110,199.6 109.9,199.7 109.9,199.7 109.7,199.7 109.5,199.9 109.3,199.9 109.2,200 108.8,200.1 108.6,200.3 
	108.4,200.6 108.2,200.7 108.1,201.1 108.1,201.5 108,201.7 108,201.8 107.9,201.9 107.9,202.3 107.9,202.3 107.9,202.7 
	107.8,202.9 107.7,203.1 107.6,203.3 107.4,203.7 107.3,204 107.3,204.1 107.2,204.2 107.1,204.4 107,204.7 107,204.9 107.2,205.3 
	107.3,205.6 107.2,205.7 107.2,205.8 107.3,205.9 107.5,206.1 107.7,206.3 107.9,206.4 107.9,206.5 108.1,206.9 108.1,207.1 
	108.3,207.3 108.4,207.4 108.7,207.5 109,207.8 109,207.9 109.2,208.4 109.3,208.7 109.3,208.8 109.5,209.3 109.5,209.4 
	109.5,209.5 109.6,209.6 109.7,209.6 109.7,209.8 109.7,209.8 109.7,209.9 109.5,210.8 109.4,210.8 109.2,211.4 109.2,211.8 
	109,212.3 108.8,212.7 108.3,213 108.1,213 107.9,213 107.7,213 107.5,213.1 107.2,213.1 107.1,213.1 107,213.1 106.7,213 
	106.3,212.9 105.8,212.7 105.7,212.6 105.6,212.5 105.5,212.4 105.5,212.4 105.4,212.4 105.3,212.3 105.2,212.2 105.1,212.1 
	105.1,212 105,211.8 104.9,211.8 104.6,211.6 104.6,211.5 104.6,211.5 104.4,211.4 104.4,211.4 104,211.2 103.9,211.1 103.8,211 
	103.7,211 103.6,211 103.4,211 102.6,210.6 102.5,210.6 102.4,210.6 102.3,210.5 102.2,210.4 102.1,210.4 102,210.4 101.9,210.3 
	101.7,210.3 101.4,210.4 101.2,210.4 101.1,210.4 101.1,210.4 101,210.3 100.9,210.3 100.9,210.2 100.8,210.2 100.7,210.2 
	100.7,210.2 100.6,210.1 100.5,210 100.5,210 100.4,210 100.3,210 100.2,209.8 100.1,209.8 100,209.7 99.8,209.6 99.6,209.4 
	99.4,209.2 99.2,209 98.9,208.8 98.7,208.6 98.3,208.5 98.2,208.5 97.9,208.4 97.8,208.4 97.7,208.3 97.4,208.1 97.2,208.1 
	96.8,207.9 95.8,207.5 95.4,207.3 95.3,207.3 95.1,207.3 95,207.3 94.9,207.3 94.7,207.2 94,207.2 93.5,207.2 93.2,207.3 93,207.4 
	92.8,207.5 92.8,207.5 92.6,207.7 92.2,207.9 91.9,208.2 91.9,208.2 91.7,208.3 91.7,208.3 91.3,208.7 91.2,208.9 91.1,208.9 
	90.8,209.2 90.8,209.3 90.6,209.6 90.5,209.6 90.4,209.9 90.2,210.2 90.2,210.3 90.2,210.4 90.2,210.5 90,210.8 90,211 89.8,211.3 
	89.7,211.4 89.6,211.6 89.5,211.6 89.5,211.6 89.5,211.7 89.1,211.9 89.1,212 89.1,212.2 88.9,212.3 88.8,212.4 88.7,212.4 
	88.7,212.4 88.6,212.4 88.6,212.5 88.3,212.9 88.2,213 88.1,213.2 88,213.5 87.9,213.8 87.9,213.8 87.8,214 87.8,214.4 87.8,214.4 
	87.8,214.8 87.8,214.8 87.9,214.9 87.9,215 87.9,215 88,215.2 88,215.4 88.1,215.5 88.2,215.5 88.2,215.6 88.3,215.6 88.4,215.8 
	88.8,216.1 89.1,216.4 89.3,216.4 89,216.6 88.9,216.6 88.7,216.6 88.4,216.8 88.2,216.9 88,216.9 87.7,216.8 87.6,216.6 
	87.5,216.6 87.5,216.2 87.5,215.8 87.4,215.6 87.4,215.5 87.4,215.4 87.3,215.4 87.3,215.3 87.3,215.2 87.3,215.2 87.1,215 
	86.9,214.9 86.8,214.8 86.5,214.6 86.3,214.4 86.2,214.2 86.2,214.2 86,213.6 85.7,213.1 85.6,213.2 85.6,213.3 85.6,213.4 
	85.5,213.4 85.4,213.4 84.9,213.4 84.9,213.4 84.9,213.3 84.5,213.3 84.1,213.2 84.1,213.3 84.1,213.7 84.1,213.8 84.1,214 
	84.2,214 84.3,214.2 84.6,214.3 85.1,214.5 85.4,214.8 85.6,215 85.6,215.2 85.4,215.8 85.4,216 85.2,216 85.1,216.2 85,216.2 
	84.6,216.1 84,215.5 83.9,215.4 83.7,215.2 83.5,215.1 83,214.9 82.6,214.7 82.1,214.4 82.1,214.4 82,214.3 82,214.2 81.9,214.1 
	81.9,214 81.9,214 81.9,213.8 81.9,213.7 82.1,213.3 82.1,213.2 82.1,213.2 82.1,212.8 82.1,212.6 82.1,212.3 81.9,212 81.8,211.8 
	81.7,211.8 81.7,211.8 81.7,211.7 81.6,211.7 81.4,211.6 81.2,211.4 81.2,211.4 81.2,211.4 81.1,211.3 81,211.2 81,211.2 
	80.7,210.7 80.4,210.2 80.3,209.8 79.9,209.2 79.8,208.9 79.8,208.8 79.7,208.8 79.6,208.4 79.6,208.3 79.5,207.7 79.5,207.6 
	79.5,207.5 79.5,207.5 79.6,207.3 79.7,207 79.7,206.9 79.7,206.9 79.7,206.7 79.7,206.7 79.7,206.6 79.7,206.5 79.6,206.5 
	79.5,206.5 79.4,206.5 79.1,206.5 78.8,206.5 78.8,206.5 78.6,206.3 78.4,206.1 78.3,205.9 78.1,205.6 78,205.4 78,205.3 78,205.2 
	78,205.1 78,205.1 78,205 78.1,204.9 78.1,204.8 78.1,204.7 78.1,204.6 78.1,204.3 78.2,204.3 78.2,204.2 78.2,204.1 78.5,203.9 
	78.6,203.8 78.8,203.5 78.8,203.5 78.9,203.4 79,203.4 79.2,203.3 79.8,203.3 80,203.2 80.3,203.1 80.5,202.9 80.5,202.7 
	80.6,202.6 80.7,201.7 80.8,201.5 80.8,201.4 80.8,201.3 80.7,201.1 80.7,201 80.6,200.9 80.6,200.9 80.6,200.8 80.6,200.7 
	80.4,200 80.2,199.6 80.2,199.5 80.1,199.5 80.1,199.4 80.1,199.3 80,199.3 80,199.3 79.9,199.1 79.9,199.1 79.9,199.1 79.8,199.1 
	79.7,199 79.5,198.7 79.4,198.5 79.3,198.5 79.2,198.4 79.2,198.3 79,198 79,198 78.7,197.6 78.7,197.5 78.6,197.5 78.5,197.1 
	78.4,196.8 78.4,196.6 78.2,196.4 78.1,196.2 78.1,196.2 77.9,196 77.9,195.9 77.8,195.3 77.8,195 77.8,194.8 77.8,194.6 
	77.8,194.4 77.8,194.2 77.9,194.2 77.9,194.2 78,194.1 78.1,194.1 78.1,194.2 78.6,194.3 78.8,194.3 78.8,194.2 78.9,194.2 
	79,194.2 79,194.2 79.1,194.1 79.1,194 79.1,193.9 79.1,193.8 79.1,193.7 79,193.6 78.8,193.3 78.8,193.2 78.6,193 78.4,192.8 
	78.4,192.8 78.3,192.7 78.2,192.6 78.1,192.4 77.9,192.2 77.9,192 77.9,191.9 77.9,191.8 77.9,191.6 77.9,191.4 77.9,191 78,190.7 
	78.1,190.6 78.1,190.4 78,190.2 77.9,190.1 77.7,190 77.7,189.9 77.5,189.8 77.3,189.8 76.4,189.6 76.2,189.5 76,189.4 76,189.3 
	75.9,189.2 75.9,189.2 75.7,189 75.6,188.6 75.5,188.5 75.4,188.5 75.3,188.4 75.1,188.4 75.1,188.3 75.1,188.2 75,188.2 75,188 
	75,188 74.8,188 74.7,188 74.6,188.2 74.2,188.1 74.1,188.2 73.8,188.1 73.8,188 73.7,188 73.6,188 73.6,187.9 73.5,187.7 
	73.6,187.4 73.6,187.3 73.7,187.1 73.7,187.1 73.7,187 73.8,186.9 73.8,186.8 73.8,186.7 73.8,186.7 73.7,186.7 73.7,186.6 
	73.6,186.5 73.5,186.1 73.3,186.1 73.3,186 73.1,185.9 73,185.8 72.7,185.7 72.7,185.6 72.6,185.5 72.5,185.5 72.1,185.2 
	71.8,184.9 71.6,184.7 71.6,184.5 71.4,184.4 71.2,184.4 71.1,184.5 70.9,184.4 70.8,184.3 70.7,184.3 70.5,184.2 70.3,184.1 
	70.2,184.1 70.1,184.3 69.9,184.1 69.8,183.9 69.7,183.6 69.7,183.5 69.8,183.4 69.8,183.2 69.8,183.1 69.6,183.1 69.3,182.9 
	68.7,182.4 68.7,182.3 68.5,182.3 68.4,182.3 68.3,182.3 67.9,182.5 67.8,182.7 67.6,182.9 67.5,183.1 67.4,183.2 66.9,183.5 
	66.8,183.6 66.5,183.6 66.2,183.5 65.7,183.4 65.7,183.3 65.6,183.3 65.5,183.2 65.4,183.1 65.4,183.1 65.4,183.1 65.3,183 
	65.1,182.5 65,182.4 64.8,181.9 64.8,181.8 64.7,181.8 64.7,181.7 64.7,181.5 64.9,181.3 65,181.2 65.1,180.9 65.5,180.9 
	65.7,180.7 65.9,180.7 65.9,180.7 66.1,180.4 66.1,180.2 65.9,180.3 65.8,180.2 65.7,180.2 65.7,180 65.6,179.9 65.2,180 
	64.6,180.1 64.4,180.1 64.1,180.1 63.9,180.1 63.7,179.9 63.5,179.5 63,178.9 62.6,178.7 62.6,178.7 62.5,178.6 62.4,178.5 
	62.4,178.4 62.4,178.3 62.3,178.2 62.3,178.2 62.2,178.2 62.1,178.1 61.9,178.1 61.7,178.2 61.5,178.2 61.4,178.2 61.3,178.1 
	60.8,177.8 60.7,177.7 60.6,177.6 60.6,177.6 60.5,177.4 60.4,177.3 60.4,177.2 60.3,177.2 60.3,177.1 60.4,176.9 60.3,176.7 
	60.3,176.6 60.3,176.5 60.2,176.4 59.9,176.2 59.8,176.2 59.8,176.2 59.4,176 59.3,176 59.3,176 59,176.2 58,175.5 57.7,175.2 
	57,174.6 56.9,174.3 56.8,174.1 56.7,174 56.7,174 56.6,173.8 56.1,172.9 55.8,172.6 55.6,172.4 55.4,172.2 55.1,172.1 54.9,172 
	54.7,172 54.5,171.8 54.4,171.7 54.2,171.3 54,171 53.8,170.8 53.8,170.8 53.8,170.7 53.8,170.6 53.6,170.4 53.6,170 53.4,169.5 
	53.4,169.4 53.4,169.4 53.4,169.2 53.4,169.2 53.4,169.1 53.4,169 53.4,168.8 53.3,168.8 53.3,168.7 53.3,168.6 53.2,168.3 
	53.2,168.2 53.2,168.1 53.2,168 53.2,167.8 53.2,167.8 53.3,167.4 53.3,166.7 53.4,166.3 53.4,166.1 53.8,165.3 53.8,165.2 
	54,164.7 54,164.7 54.1,164.5 54.1,164.5 54.2,164.4 54.5,163.9 54.7,163.8 55,163.5 55.5,162.9 55.7,162.5 55.7,162.4 55.8,162.3 
	55.8,162.3 55.8,161.9 55.9,161.8 55.9,161.7 56,161.1 56,161 56.1,160.9 56.1,160.7 56.2,160.3 56.3,159.9 56.4,159.4 56.4,159.3 
	56.5,159.1 56.6,158.9 56.8,158.6 56.8,158.5 57,158.2 57.1,158.1 57.1,158 57.5,157.4 57.6,157.4 57.6,157.3 57.6,157.3 
	57.8,157.2 58,157 58,157 58.2,156.8 58.2,156.8 58.4,156.6 58.5,156.5 58.6,156.2 58.7,156 58.7,155.8 58.8,155.4 58.9,155.2 
	58.9,154.9 58.9,154.8 58.7,154.2 58.7,154.2 58.7,154 58.6,153.7 58.6,153.6 58.6,153.6 58.5,153.4 58.4,153.2 58.3,153.1 
	58.2,153 58,152.6 57.9,152.3 57.9,152 57.9,151.9 58,151.8 58.1,151.5 58.5,151.1 58.7,151 58.9,150.7 58.9,150.5 58.9,150.4 
	59,150.3 59.1,150.2 59.2,150 59.7,149.6 60.4,149 60.6,148.8 60.6,148.4 60.8,147.7 60.8,147.6 60.8,147.4 60.8,147.3 60.7,147.2 
	60.5,147 60.4,146.9 60.2,146.9 60.1,146.8 59.8,146.7 59.8,146.6 59.6,146.5 59.5,146.4 59.2,146.2 59.2,146.1 59,146.1 58.9,146 
	58.7,145.9 58.7,145.9 58.6,145.8 58.5,145.8 58.4,145.8 58.4,145.8 58.3,145.7 58.2,145.5 58,145.5 58,145.4 57.8,145.3 
	57.8,145.2 57.8,145.2 57.6,145 57.5,144.9 57.5,144.9 57.4,144.9 57.1,144.7 56.8,144.5 56.7,144.5 56.6,144.5 56.5,144.5 
	56.3,144.4 56.1,144.4 56,144.4 55.8,144.4 55.6,144.4 55.5,144.4 55.4,144.4 55.2,144.4 55.1,144.4 54.9,144.2 54.7,144.1 
	54.7,144.1 54.6,144.1 54.5,144.1 54.5,144 54.4,144 54.1,143.7 53.6,143.5 53.6,143.5 53.6,143.5 53.4,143.4 53,143.2 53,143.2 
	53,143.1 52.9,143.1 52.7,143.1 52.7,143 52.5,143 52.4,142.9 52.3,142.9 52.2,142.9 51.9,142.9 51.6,142.8 51.5,142.8 51.4,142.7 
	51.1,142.7 50.8,142.9 50.7,142.9 50.5,143.1 50.4,143.3 50.3,143.5 50.3,143.6 50.2,143.7 50.2,143.7 50.2,143.8 50.2,143.9 
	50.2,144 50.1,144.3 49.7,144.9 49.6,145.1 49.2,145.3 48.8,145.7 48.5,146.2 48.4,146.2 48.2,146.3 48.1,146.3 48,146.4 
	47.9,146.4 47.5,146.4 47.4,146.4 47.3,146.4 47.3,146.3 47,146.2 46.2,145.7 46.1,145.5 45.9,145.1 45.8,144.9 45.5,144.8 
	45.4,144.7 45.3,144.5 45.1,144.3 45.1,144.2 45.1,143.9 45,143.5 44.9,143.3 44.8,143.1 44.8,143 44.8,142.9 44.8,142.9 
	44.8,142.8 44.8,142.7 44.8,142.1 44.7,141.8 44.6,141.6 44.6,141.5 44.6,141.5 44.5,141.5 44.5,141.4 44.4,141.3 44.4,141.2 
	44.4,141.1 44.3,140.9 44,140.4 43.8,139.9 43.8,139.7 43.7,139.5 43.7,139.5 43.7,139.4 43.7,139.3 44,139.1 44,138.9 44.1,138.8 
	44.6,138.2 44.6,138.1 44.6,137.7 44.6,137.3 44.5,137.2 44.5,137.2 44.5,137.1 44.4,137 44.2,136.7 44.1,136.5 44,136.4 44,136.2 
	43.9,135.9 43.8,135.8 43.8,135.1 43.8,135 43.7,134.6 43.7,134.4 43.7,134.4 43.7,134.2 43.7,134 43.7,133.9 43.7,133.8 
	43.7,133.7 43.7,133.6 43.6,133.4 43.5,133.2 43.5,133.1 43.5,133 43.5,132.8 43.5,132.6 43.4,132.2 43.3,132 43.2,131.9 
	43.2,131.8 43.1,131.8 42.7,131.6 42.7,131.6 42.2,131 42,130.7 42,130.6 41.8,130.4 41.6,130.2 41.6,130 41.5,130 41.3,129.8 
	40.9,129.6 40.7,129.4 40.2,128.8 40.2,128.8 40,128.6 39.7,128.4 39.4,128.2 39.4,128.2 39,128 38.8,127.8 38.7,127.8 38.7,127.8 
	38.7,127.8 38.5,127.6 38.5,127.5 38.5,127.4 38.4,127.3 38.3,127.3 38.1,127.3 38,127.3 38,127.2 38,127.2 37.8,127.1 37.8,127.1 
	37.6,126.9 37.6,126.9 37.6,126.7 37.5,126.6 37.5,126.5 37.4,126.5 37.4,126.5 37.4,126.5 37.4,126.4 37.2,126.3 37.2,126.3 
	37.2,126.3 36.9,126.3 36.7,126.1 36.5,126.1 36.3,125.9 36.2,125.8 35.9,125.7 35.6,125.5 35.4,125.3 35.1,125.1 35,125.1 35,125 
	34.9,124.9 34.8,124.9 34.7,124.8 34.6,124.7 34.4,124.5 34.3,124.3 34.3,124.3 34.3,124.3 34.3,124.2 34.2,124.2 34.1,124 
	34.1,124 34.1,123.9 34,123.8 34,123.5 33.9,123 33.7,122.8 33.7,122.7 33.5,122.5 33.4,122.2 33.2,121.7 33,121.3 32.6,121.3 
	32.5,121.3 32.2,121.2 31.6,121.1 31.5,121 31.3,120.9 31.3,120.8 31.2,120.6 31.1,120.3 31,120.2 31,119.7 30.9,119.3 30.8,119.1 
	30.7,118.9 30.6,118.9 29.7,118.5 29.5,118.4 29.3,118.3 29,118 29,117.8 29,117.7 28.9,117.7 28.8,117.6 28.8,117.5 28.6,117.3 
	28.5,117.2 28.4,117 28.4,116.9 28.1,116.6 27.8,116.4 27.6,116.2 27.3,116.1 27.3,116 27.3,116 27.3,115.9 27.2,115.9 26.9,115.6 
	26.6,115.3 26.4,115.2 26.2,115 26,114.8 26,114.7 25.9,114.7 25.9,114.6 25.8,114.6 25.6,114.3 25.5,114.2 25.5,114.1 25.5,114.1 
	25.5,114 25.5,113.6 25.6,113.3 25.6,113.2 25.6,113.1 25.6,112.8 25.6,112.6 25.6,112.5 25.6,112.3 25.7,112.2 25.7,112.1 
	25.7,112 25.7,111.8 25.6,111.6 25.4,111.2 25.3,111.1 25.1,111 24.7,110.8 24.5,110.6 24.3,110.4 23.9,110.1 23.8,110 23.7,109.9 
	23.7,109.8 23.6,109.8 23.6,109.7 23.6,109.4 23.4,108.9 23.4,108.6 23.4,108.4 23.5,108 23.7,107.9 23.9,107.5 24,107.5 
	24.1,107.3 24.2,107.3 24.2,107.2 24.2,107.1 24.2,107 24.2,106.9 24.2,106.8 24.2,106.7 24.2,106.7 24.2,106.6 24.1,106.5 
	24,106.4 24,106.3 23.9,106.3 23.8,106.2 23.8,106.1 23.7,106.1 23.6,105.9 23.6,105.9 23.6,105.9 23.4,105.6 23.4,105.4 
	23.2,105.1 23.1,104.9 23.1,104.8 23,104.7 22.9,104.7 22.9,104.5 22.9,104.4 22.9,104.3 22.6,103.7 22.4,103.3 22.3,103.2 
	22.3,103.1 22.2,102.9 22.2,102.8 22.1,102.7 22.1,102.7 22.3,102.1 22.3,101.9 22.3,101.8 22.1,101.4 22.1,101.1 22,100.7 
	22,100.3 21.9,100.2 21.9,100.1 21.9,100 21.8,99.8 21.8,99.6 21.8,99.5 21.8,99.5 21.8,99.3 21.8,99.3 21.8,99.2 21.8,99.1 
	21.8,99 21.8,98.9 21.8,98.8 21.8,98.7 21.8,98.5 21.8,98.5 21.8,98.2 21.8,97.7 21.7,97.4 21.7,97.3 21.8,97 21.8,97 22,96.8 
	22,96.7 "/>
<g>
	<path class="st1" d="M227.6,46.3l-16.8,17.2c-2.2,2.2-3.9,3.7-5.3,4.5c-1.3,0.8-2.8,1.2-4.4,1.2c-2.5,0-4.6-0.9-6.3-2.8
		c-1.7-1.9-2.6-4.1-2.6-6.9c0-1.7,0.3-3.5,0.8-5.5c0.5-2,1.5-4.9,3-8.9c0.3-0.8,0.6-1.5,0.8-2.1c0.3-0.6,0.5-1.1,0.6-1.5l-0.2-0.2
		c-4,4.2-7.9,8.6-11.7,13.2c-3.2,3.8-5.7,6.7-7.6,8.5c-1.9,1.9-3.6,3.3-5.1,4.2c-1.5,0.9-2.9,1.4-4.1,1.4c-2.7,0-4.8-1-6.3-3.1
		c-1.6-2.1-2.3-4.9-2.3-8.5c0-4.5,2-11.9,5.9-22.1c3.5-9,6.2-15.1,8.2-18.1c2.8-4.3,6.1-6.4,9.7-6.4c2.2,0,4,0.5,5.5,1.6
		c1.5,1,2.2,2.4,2.2,4.1c0,3.1-1.2,7.8-3.5,14.1c-0.9,2.3-1.8,5-2.8,7.9l0.2,0.2c1.5-1.7,3.9-4.6,7.3-8.7c5.8-7.1,10.1-12,13.1-14.6
		c3.8-3.5,7.3-5.3,10.4-5.3c1.4,0,2.7,0.5,4,1.4c1.3,0.9,2.3,2.2,3,3.8c0.8,1.6,1.1,3.2,1.1,4.9c0,1.8-1.3,6.3-3.8,13.5
		c-0.5,1.5-0.9,2.7-1.2,3.6c-0.3,0.9-0.6,1.6-0.8,2.2l0.3,0.2c0.6-0.6,1.1-1.1,1.5-1.5c0.4-0.5,1-0.9,1.5-1.4c0.6-0.5,1.1-1,1.6-1.4
		c1.1-1.1,3.9-3.9,8.3-8.4c2.9-3.3,5.3-5.5,6.9-6.7c1.7-1.2,3.3-1.8,4.9-1.8c2.5,0,4.5,0.9,5.8,2.6c1.3,1.7,2,4.3,2,7.7
		c0,2.1-0.3,5.4-1,9.9c-0.6,5.1-1,9.1-1.2,12c-0.2,2.9-0.3,4.9-0.3,6.1c0,0.9,0.1,2,0.2,3.3c0.1,1.3,0.3,2.8,0.5,4.3
		c0.2,1.5,0.6,3.2,1,5c0.5,2.3,0.8,4,1,5.3c-0.3,1.5-1.4,2.7-3.2,3.7c-1.8,1-3.8,1.5-5.9,1.5c-3.4,0-6.5-1.5-9.5-4.5
		c-1.3-1.4-2.3-2.8-3-4.2c-0.7-1.4-1.2-3.1-1.5-5c-0.3-1.9-0.5-4.5-0.5-7.7c0-2.1,0.2-6.4,0.7-13l-0.2-0.2L227.6,46.3z"/>
	<path class="st1" d="M301.9,29.1l0.8-2.6c1.1-4.1,2.7-7.3,4.9-9.5c1.4-1.4,3-2.5,4.8-3.4c1.8-0.9,3.4-1.4,4.9-1.4
		c2.7,0,4.1,1.1,4.1,3.4c0,1.1-0.4,2.9-1.1,5.3c-0.7,2.4-1.7,5.2-2.9,8.2c-1.2,3.1-2.6,6.4-4.2,10c-1.6,3.6-3.4,7.4-5.4,11.2
		c-3.6,7.3-7.2,13.5-10.8,18.5c-2.6,3.6-5.3,6.8-8,9.6c-2.7,2.8-5.5,5.3-8.5,7.5c-3,2.2-5.8,3.9-8.4,5c-2.6,1.1-5.1,1.7-7.3,1.7
		c-1.8,0-2.8-0.8-2.8-2.4c0-1.3,0.3-2.8,0.9-4.5c0.6-1.8,1.4-3.4,2.4-5c1.1-1.5,2.5-2.8,4.2-3.9c2.1-1.5,5.3-3.2,9.4-5
		c-2.5-4.1-4.3-7.4-5.6-9.8c-1.3-2.4-2.7-5.4-4.2-9c-3.4-8-5-15.2-5-21.8c0-5,0.6-9,1.8-12.1c1.1-2.7,3.1-4.5,6.1-5.7
		c2.4-0.9,4.5-1.4,6.4-1.4c2.7,0,4.5,1,5.4,3s1.7,6.8,2.4,14.2c0.7,8,1.9,15.9,3.6,23.7c0.3,1.2,0.6,2.8,1,4.9h0.2
		c1.1-2.4,2.3-5.3,3.6-8.8c0.4-1,1.8-4.6,4.3-10.9C300.1,34.5,301.2,31.4,301.9,29.1z"/>
</g>
<path class="st2" d="M179.7,193.5h-21.3V95.7h21.3V193.5z"/>
<path class="st2" d="M243.8,165.4c-1-12.4-5.8-13.1-10.3-14c-4.6-0.9-18.8-0.8-18.8-0.8v42.9H194V95.7l30.6,0c0,0,17.7,0,26.3,2.6
	c11.1,3.5,13.6,12.6,13.9,17c0.3,4.3,1.2,8.4-2.1,18c-2.8,8.2-13.6,9.3-13.6,9.3c12.8,2.9,14,8.8,15.1,12.6c1,3.8,1.1,24.4,1.3,28.6
	s5.7,9.6,5.7,9.6h-25.5C243.3,183.6,244.8,178.5,243.8,165.4z M214.6,109.5v27.5l16.4,0.3c0,0,12.1-0.6,12.8-11.7
	s-4.2-13.2-4.2-13.2S234.4,108.2,214.6,109.5z"/>
<path class="st2" d="M279.2,109.2c0,0-6.1,10.6-4.5,39.6c1.6,27.4,4.7,32.4,4.7,32.4s6,15.6,34.3,14.4c29-1.2,29.9-28.2,29.9-28.2
	s0.2-3.9,0-8.9h-20.8c0,0,0.6,11.9-3.1,18c-3.7,6.2-16.8,5.2-20,0.1c0,0-2.3-4.2-2.7-13.4c-0.4-9.2-0.3-35.7-0.3-35.7
	s-1.3-19.7,12.6-19.8c13.9-0.1,12.9,14.2,12.9,18h21c0,0,0.6-20.5-12.4-28.5s-32-3.9-35.9-2.8C291.2,95.7,282,100.7,279.2,109.2z"/>
</svg>
