<?xml version="1.0" encoding="UTF-8" standalone="no"?>
<!-- Created with Inkscape (http://www.inkscape.org/) -->
<svg
   xmlns:dc="http://purl.org/dc/elements/1.1/"
   xmlns:cc="http://creativecommons.org/ns#"
   xmlns:rdf="http://www.w3.org/1999/02/22-rdf-syntax-ns#"
   xmlns:svg="http://www.w3.org/2000/svg"
   xmlns="http://www.w3.org/2000/svg"
   xmlns:sodipodi="http://sodipodi.sourceforge.net/DTD/sodipodi-0.dtd"
   xmlns:inkscape="http://www.inkscape.org/namespaces/inkscape"
   id="svg2"
   sodipodi:version="0.32"
   inkscape:version="0.46"
   width="213.33"
   height="53.959999"
   xml:space="preserve"
   sodipodi:docname="London_Stock_Exchange.svg"
   version="1.0"
   inkscape:output_extension="org.inkscape.output.svg.inkscape"><metadata
     id="metadata7"><rdf:RDF><cc:Work
         rdf:about=""><dc:format>image/svg+xml</dc:format><dc:type
           rdf:resource="http://purl.org/dc/dcmitype/StillImage" /></cc:Work></rdf:RDF></metadata><defs
     id="defs5"><inkscape:perspective
       sodipodi:type="inkscape:persp3d"
       inkscape:vp_x="0 : 526.18109 : 1"
       inkscape:vp_y="0 : 1000 : 0"
       inkscape:vp_z="744.09448 : 526.18109 : 1"
       inkscape:persp3d-origin="372.04724 : 350.78739 : 1"
       id="perspective9" /><clipPath
       clipPathUnits="userSpaceOnUse"
       id="clipPath19"><path
         d="M 380.72,689.819 L 600.981,689.819 L 600.981,767.307 L 380.72,767.307 L 380.72,689.819 z"
         id="path21" /></clipPath><clipPath
       clipPathUnits="userSpaceOnUse"
       id="clipPath27"><path
         d="M 380.72,725.74 L 548.982,725.74 L 548.982,767.307 L 380.72,767.307 L 380.72,725.74 z"
         id="path29" /></clipPath><clipPath
       clipPathUnits="userSpaceOnUse"
       id="clipPath241"><path
         d="M -4.989,38.141 L -4.989,448.668 L 598.79,496.675 L 598.79,38.141"
         clip-rule="evenodd"
         id="path243" /></clipPath><clipPath
       clipPathUnits="userSpaceOnUse"
       id="clipPath257"><path
         d="M 130.261,28.347 L 215.53,28.347 L 215.53,40.732 L 130.261,40.732 L 130.261,28.347 z"
         id="path259" /></clipPath><clipPath
       clipPathUnits="userSpaceOnUse"
       id="clipPath273"><path
         d="M 298.979,19.957 L 428.279,19.957 L 428.279,47.586 L 298.979,47.586 L 298.979,19.957 z"
         id="path275" /></clipPath><clipPath
       clipPathUnits="userSpaceOnUse"
       id="clipPath285"><path
         d="M 508.837,21.494 L 565.53,21.494 L 565.53,46.772 L 508.837,46.772 L 508.837,21.494 z"
         id="path287" /></clipPath><clipPath
       clipPathUnits="userSpaceOnUse"
       id="clipPath293"><path
         d="M 514.926,26.305 L 558.038,26.305 L 558.038,42.446 L 514.926,42.446 L 514.926,26.305 z"
         id="path295" /></clipPath><clipPath
       clipPathUnits="userSpaceOnUse"
       id="clipPath309"><path
         d="M 8.676,21.494 L 65.368,21.494 L 65.368,46.772 L 8.676,46.772 L 8.676,21.494 z"
         id="path311" /></clipPath><clipPath
       clipPathUnits="userSpaceOnUse"
       id="clipPath317"><path
         d="M 15.897,29.636 L 58.334,29.636 L 58.334,38.43 L 15.897,38.43 L 15.897,29.636 z"
         id="path319" /></clipPath><clipPath
       clipPathUnits="userSpaceOnUse"
       id="clipPath347"><path
         d="M 67.147,9.922 L 127.421,9.922 L 127.421,56.693 L 67.147,56.693 L 67.147,9.922 z"
         id="path349" /></clipPath><clipPath
       clipPathUnits="userSpaceOnUse"
       id="clipPath355"><path
         d="M 71.502,19.157 L 122.798,19.157 L 122.798,47.843 L 71.502,47.843 L 71.502,19.157 z"
         id="path357" /></clipPath><clipPath
       clipPathUnits="userSpaceOnUse"
       id="clipPath415"><path
         d="M 219.034,21.762 L 294.607,21.762 L 294.607,47.04 L 219.034,47.04 L 219.034,21.762 z"
         id="path417" /></clipPath><clipPath
       clipPathUnits="userSpaceOnUse"
       id="clipPath423"><path
         d="M 223.656,28.764 L 289.378,28.764 L 289.378,38.824 L 223.656,38.824 L 223.656,28.764 z"
         id="path425" /></clipPath><clipPath
       clipPathUnits="userSpaceOnUse"
       id="clipPath491"><path
         d="M 436.065,21.071 L 499.331,21.071 L 499.331,46.349 L 436.065,46.349 L 436.065,21.071 z"
         id="path493" /></clipPath><clipPath
       clipPathUnits="userSpaceOnUse"
       id="clipPath499"><path
         d="M 437.847,26.169 L 498.814,26.169 L 498.814,38.702 L 437.847,38.702 L 437.847,26.169 z"
         id="path501" /></clipPath></defs><sodipodi:namedview
     inkscape:window-height="974"
     inkscape:window-width="1280"
     inkscape:pageshadow="2"
     inkscape:pageopacity="0.0"
     guidetolerance="10.0"
     gridtolerance="10.0"
     objecttolerance="10.0"
     borderopacity="1.0"
     bordercolor="#666666"
     pagecolor="#ffffff"
     id="base"
     showgrid="false"
     inkscape:zoom="3.1728734"
     inkscape:cx="131.42859"
     inkscape:cy="-6.2585044"
     inkscape:window-x="-8"
     inkscape:window-y="-8"
     inkscape:current-layer="g11" /><g
     id="g11"
     inkscape:groupmode="layer"
     inkscape:label="guide-to-listing"
     transform="matrix(1.25,0,0,-1.25,-475.9,959.13375)"><path
       id="path33"
       style="fill:#155195;fill-opacity:1;fill-rule:nonzero;stroke:none"
       d="M 400.99119,761.18839 L 401.68319,761.18639 L 401.70619,761.89239 L 402.37819,761.89339 L 401.53719,760.51439 C 401.60719,760.38439 401.81819,760.44939 401.94319,760.45939 L 402.03619,760.51439 L 402.05719,759.91739 C 401.37719,759.68939 400.67419,759.89639 400.67419,759.89639 L 400.65819,760.51439 C 400.79319,760.43339 401.07519,760.36839 401.15119,760.51439 L 400.33019,761.89339 L 400.97319,761.89239" /><path
       id="path37"
       style="fill:#155195;fill-opacity:1;fill-rule:nonzero;stroke:none"
       d="M 387.31139,749.86869 C 387.41439,749.64669 387.49039,749.41269 387.57139,749.17969 C 387.82139,748.63669 388.04939,748.08969 388.37439,747.58069 L 388.37439,747.51969 L 387.34939,746.68469 C 387.91939,745.95769 388.54739,745.25869 389.17739,744.55969 C 390.86939,745.80169 392.56639,747.04269 394.35639,748.04669 C 395.21339,748.45869 396.36239,748.14369 397.23039,748.52869 C 396.50339,747.98069 396.11839,747.16269 395.41939,746.59269 C 395.84239,746.07269 396.03239,745.45969 396.29839,744.87369 C 395.50039,744.86769 394.62739,744.78169 393.91139,745.02569 C 394.06239,744.66169 394.09039,743.63769 394.13439,743.12169 C 393.39639,743.40369 392.61039,743.57269 391.99139,744.14669 C 392.02439,743.13269 391.61839,742.29769 391.30339,741.43069 C 390.79339,741.91169 390.24539,742.41069 389.92039,742.99169 C 389.63239,742.22769 388.88439,741.64669 388.39639,740.96469 L 387.34939,739.41269 C 387.61539,740.07469 387.66439,740.81669 387.68539,741.57669 C 385.65239,741.90769 383.36839,742.85669 382.59839,745.00469 C 382.45239,745.41069 382.33839,745.82869 382.33839,746.29469 C 382.90839,745.16669 384.12839,744.52669 385.28339,744.35269 C 383.48239,745.41669 382.09439,747.23869 381.98039,749.29469 C 382.55539,748.17669 383.71539,747.09269 384.87139,746.62569 L 384.89239,746.64769 C 383.02739,748.43769 381.87239,750.62169 382.07739,753.17169 C 382.45739,751.66369 383.38539,750.23169 384.77939,749.29469 L 384.79439,749.30969 C 383.24939,751.32769 382.14839,753.87669 383.00539,756.54469 C 383.08139,753.75169 384.95239,751.37169 387.31139,749.86869" /><path
       id="path41"
       style="fill:#155195;fill-opacity:1;fill-rule:nonzero;stroke:none"
       d="M 420.52869,749.27279 L 420.54469,749.25579 C 421.96069,750.17779 422.88769,751.63779 423.26769,753.14979 C 423.48469,750.53579 422.29169,748.39279 420.43169,746.60879 L 420.49069,746.60879 C 421.64069,747.07079 422.77969,748.13379 423.36069,749.25579 C 423.27269,747.84679 422.65469,746.66379 421.68369,745.62179 C 421.17369,745.10679 420.62069,744.68379 420.04069,744.33579 C 420.57269,744.38579 421.08269,744.58079 421.55369,744.81879 C 422.13469,745.11679 422.74669,745.66579 423.02369,746.27279 C 422.98569,744.54279 421.66269,742.94279 420.10069,742.28679 C 419.32469,741.95579 418.51669,741.70679 417.65469,741.57679 C 417.64369,740.86179 417.71469,740.08579 417.97469,739.43379 C 417.33969,740.44379 416.52169,741.48379 415.66469,742.45479 C 415.53469,742.61279 415.46869,742.79079 415.40469,742.97579 C 415.05069,742.40579 414.53069,741.90779 414.00469,741.40879 C 413.71169,742.29779 413.26669,743.12179 413.31569,744.14679 C 412.70269,743.55579 411.90669,743.40879 411.16869,743.12179 C 411.19069,743.72979 411.17969,744.42379 411.39669,744.98779 C 410.52869,744.78979 409.62269,744.86379 408.98869,744.87379 C 409.22669,745.47079 409.45969,746.06779 409.86669,746.59279 C 409.18369,747.16279 408.76069,747.95479 408.07669,748.51279 C 408.84169,748.17679 409.94769,748.40479 410.77769,748.10079 C 411.67869,747.65679 412.51869,747.07079 413.37069,746.51679 L 415.54969,744.97179 L 416.10869,744.54279 L 416.16269,744.55979 L 417.99069,746.64779 L 416.94969,747.50479 C 417.36769,748.23679 417.69169,749.00579 417.97469,749.79879 C 420.32869,751.31679 422.26469,753.69779 422.33469,756.50679 C 423.18669,753.84379 422.09669,751.28279 420.52869,749.27279" /><path
       id="path45"
       style="fill:#155195;fill-opacity:1;fill-rule:nonzero;stroke:none"
       d="M 387.11119,750.56269 C 386.50919,750.89869 385.88519,751.47469 385.50619,752.07069 C 385.60319,753.59969 386.02119,754.99469 386.60619,756.32269 C 386.29719,754.34269 386.63319,752.35269 387.11119,750.56269" /><path
       id="path49"
       style="fill:#155195;fill-opacity:1;fill-rule:nonzero;stroke:none"
       d="M 419.81799,752.03279 C 419.39999,751.44579 418.83699,750.86079 418.21299,750.52479 C 418.66299,752.32479 419.04299,754.29879 418.71799,756.28379 C 419.30899,754.96179 419.70499,753.55679 419.81799,752.03279" /><path
       id="path53"
       style="fill:#155195;fill-opacity:1;fill-rule:nonzero;stroke:none"
       d="M 388.54279,752.53669 C 388.72179,753.04669 388.90579,753.55169 389.25279,753.99069 C 389.23679,753.45269 389.16679,752.76469 389.45879,752.29269 C 390.35379,752.49869 391.39579,752.63369 392.34379,752.44369 C 391.84979,752.28169 391.29279,751.94569 391.08079,751.41969 C 390.98279,751.50769 390.97179,751.66369 390.87479,751.77269 C 390.63579,751.72869 390.39179,751.71269 390.16379,751.64269 L 390.89079,750.95369 C 390.81979,750.51869 390.77679,749.96069 390.92879,749.55469 C 390.95579,750.59569 391.54179,751.57169 392.47479,752.07069 C 392.90279,752.28669 393.53779,752.44369 393.98679,752.16269 C 394.25879,751.95169 394.28579,751.59869 394.20979,751.28969 C 394.21579,751.45269 394.05779,751.58269 393.92779,751.65769 C 393.21179,751.88169 392.63679,751.35469 392.19779,750.82269 C 392.11579,750.67069 391.99679,750.54169 391.95379,750.37269 C 392.29579,750.15069 392.67479,750.25269 393.07079,750.28069 C 393.39079,750.35269 393.68379,750.48769 393.94979,750.69269 C 393.43479,749.91769 392.55479,749.61369 391.78579,749.25569 L 392.08379,748.82669 C 391.92079,748.69669 391.73179,748.54069 391.52579,748.47469 L 391.04279,749.10969 C 390.51079,748.71869 389.96379,748.38769 389.43779,747.98669 L 389.86579,747.37369 C 389.73079,747.25469 389.57279,747.10769 389.39979,747.03769 C 388.00579,748.86569 386.99079,751.39269 388.02179,753.69269 L 388.29879,754.15869 C 388.30979,753.58869 388.33079,753.02469 388.54279,752.53669" /><path
       id="path57"
       style="fill:#155195;fill-opacity:1;fill-rule:nonzero;stroke:none"
       d="M 416.23929,747.45009 L 415.92429,747.03809 C 415.76129,747.05909 415.61029,747.23909 415.45829,747.33609 C 415.57229,747.55309 415.75129,747.74309 415.88629,747.94909 C 415.37129,748.35609 414.80729,748.70809 414.26529,749.08809 L 413.79829,748.47509 L 413.70629,748.47509 C 413.54429,748.57709 413.38129,748.68509 413.21829,748.79009 C 413.29929,748.94109 413.41929,749.07709 413.51629,749.21709 C 413.21829,749.42909 412.83329,749.50509 412.51329,749.70609 C 412.07929,749.92909 411.60729,750.21609 411.33629,750.67109 C 411.84029,750.27509 412.63229,750.10209 413.31629,750.31809 C 413.38129,750.44309 413.22929,750.56809 413.18629,750.69309 C 412.77329,751.28309 412.17729,751.78909 411.43329,751.68009 C 411.28829,751.65809 411.16829,751.49609 411.09829,751.38309 L 411.07629,751.29009 C 411.01629,751.45709 411.01629,751.80509 411.15229,751.99509 C 411.40729,752.31409 411.81329,752.32009 412.19329,752.27609 C 413.09429,752.10309 413.96729,751.29009 414.22729,750.41109 C 414.33029,750.13409 414.32429,749.81409 414.37929,749.51609 C 414.54829,749.96909 414.47429,750.66109 414.43329,750.95409 C 414.66629,751.17609 414.92629,751.39209 415.13829,751.62009 C 414.91529,751.69609 414.66629,751.71309 414.43329,751.75609 C 414.37929,751.63809 414.30329,751.52709 414.26529,751.39809 C 414.00429,751.87509 413.48929,752.28109 412.97929,752.42409 C 413.87429,752.62409 414.96429,752.46609 415.86529,752.27609 C 416.15229,752.74209 416.10329,753.39309 416.05529,753.95209 C 416.41829,753.54109 416.60229,753.02509 416.78129,752.51509 C 416.96629,753.01409 417.04129,753.55109 417.00329,754.13709 C 418.40329,752.10309 417.51929,749.25509 416.23929,747.45009" /><path
       id="path61"
       style="fill:#155195;fill-opacity:1;fill-rule:nonzero;stroke:none"
       d="M 396.29809,753.65369 C 396.91009,752.99269 397.38809,752.05969 396.97009,751.17569 C 396.89409,751.06169 396.81809,750.95369 396.74209,750.83969 C 397.57809,750.79069 398.33709,750.92569 398.96109,751.38269 C 399.38909,751.20369 399.84409,751.11069 400.34309,751.09969 C 400.87509,750.17769 401.33109,749.22369 401.64609,748.21569 C 401.75309,748.95169 401.63509,749.73869 401.46109,750.43269 C 401.39009,750.66669 401.29309,750.91569 401.25509,751.13869 C 401.91109,751.21869 402.52909,751.39269 403.09809,751.68069 C 403.54309,751.93469 404.03109,752.18969 404.35109,752.62869 C 403.24509,751.99569 402.03009,751.64269 400.69609,751.56669 C 399.88809,751.59869 399.01509,751.62669 398.57009,752.36869 C 398.38609,752.73169 398.66309,753.11669 398.76009,753.35569 C 397.93009,753.15569 397.00809,753.28969 396.29809,753.65369 z M 399.80109,755.79569 C 399.68209,755.83469 399.53509,755.81769 399.42709,755.75869 C 399.29109,755.68769 399.29109,755.53569 399.29709,755.38969 C 399.35109,755.21569 399.49809,755.07969 399.67109,755.03169 C 399.98009,754.97269 400.37609,754.96669 400.60409,755.18369 C 400.33309,755.38969 400.09909,755.67169 399.80109,755.79569 z M 405.20809,755.89369 C 405.46809,755.61769 405.57709,755.22169 405.93409,755.05369 C 406.07009,755.02069 406.23809,755.02069 406.34209,755.12969 C 406.41809,755.24269 406.43409,755.39969 406.40109,755.53569 C 406.16809,755.93769 405.63609,756.02469 405.20809,755.89369 z M 400.90209,756.05669 C 400.69009,756.09969 400.44109,756.08369 400.30609,755.92669 C 400.59909,755.72069 400.83709,755.37369 401.14109,755.18369 C 401.33609,755.07969 401.61209,755.12469 401.77509,755.25869 C 401.49909,755.51369 401.22809,755.87269 400.90209,756.05669 z M 403.95609,756.07869 C 404.22609,755.78569 404.38409,755.42769 404.68209,755.16169 C 404.85509,755.06469 405.12109,755.02669 405.30009,755.14569 C 405.06209,755.43369 404.88809,755.75369 404.65009,756.04069 C 404.46509,756.16469 404.15009,756.20269 403.95609,756.07869 z M 402.05709,756.18669 C 401.84009,756.25669 401.62909,756.16469 401.47709,756.05669 L 402.16509,755.38969 C 402.37709,755.24269 402.71309,755.17269 402.95209,755.31469 C 402.63209,755.59569 402.41509,756.00169 402.05709,756.18669 z M 403.35909,756.17069 C 403.15209,756.25669 402.89809,756.25669 402.73009,756.13269 C 403.09809,755.84469 403.20709,755.31869 403.67909,755.19969 C 403.82509,755.16669 404.00409,755.19969 404.10709,755.29769 C 403.79809,755.56369 403.68409,755.94269 403.35909,756.17069 z M 404.14509,758.01369 L 403.54909,757.66169 C 403.55609,757.51169 403.76009,757.43069 403.80509,757.29869 C 403.82209,757.24769 403.80309,757.01569 403.77909,756.98969 C 403.69409,756.89969 403.43609,756.98969 403.32609,756.93569 C 403.18009,756.90869 403.11509,756.75569 403.12009,756.62069 C 403.32109,756.57169 403.57609,756.57769 403.73309,756.39369 C 403.90709,756.46369 404.06909,756.56669 404.29209,756.52269 C 404.34009,756.72969 404.35109,756.95069 404.44409,757.14069 C 404.49809,757.26569 404.63309,757.28769 404.74209,757.32469 C 404.50309,757.54269 404.32409,757.77569 404.14509,758.01369 z M 416.70509,761.24169 C 416.35809,760.29669 415.33909,759.74969 414.37909,759.72769 C 415.00309,758.94669 415.12209,757.94969 416.00009,757.27169 C 416.47209,756.88669 417.10709,756.67469 417.73109,756.88069 C 418.52809,757.13569 419.08109,757.98769 419.22209,758.76269 C 418.99409,758.59969 418.68509,758.44269 418.38109,758.37269 C 417.82809,758.27469 417.24309,758.33469 416.83609,758.70369 C 416.87409,758.78469 416.90609,758.85969 416.96609,758.93069 C 417.32909,759.63069 417.21009,760.66169 416.70509,761.24169 z M 388.59709,761.27869 L 388.50509,761.16569 C 388.02709,760.50369 388.03809,759.39669 388.48809,758.72569 C 388.36909,758.61669 388.22809,758.56269 388.09809,758.48069 C 387.43109,758.20469 386.63909,758.39969 386.10209,758.81769 C 386.23209,758.10569 386.64409,757.40169 387.31109,757.02769 C 387.82109,756.73969 388.52609,756.75569 389.00909,757.08169 C 390.09409,757.69369 390.25109,758.88769 390.92909,759.76669 C 389.94209,759.76669 388.97109,760.35669 388.59709,761.27869 z M 405.78309,761.70769 C 405.71209,761.59969 405.60409,761.50769 405.48509,761.46369 C 405.00109,761.39869 404.43309,761.52869 403.99309,761.34969 C 403.83609,761.26869 403.71109,761.10569 403.65709,760.94269 C 403.63009,760.77369 403.62509,760.57469 403.73309,760.43869 C 404.09109,759.96669 404.76909,760.17269 405.31709,760.12469 C 405.38109,760.09169 405.43009,760.02569 405.43009,759.95569 C 405.41409,759.88069 405.36509,759.83669 405.30009,759.80369 L 403.04409,759.80369 C 402.89809,759.48469 402.60509,759.22369 402.61609,758.83869 L 401.96509,758.83869 L 401.29309,758.07369 L 400.64209,758.83869 L 399.98609,758.85469 L 399.96909,759.11569 L 399.37309,760.19469 C 399.50309,760.40669 399.65009,760.86769 399.65009,760.86769 L 399.46509,761.03469 L 398.73809,760.47669 L 399.50009,758.46869 L 400.09909,758.31269 L 400.09909,758.48569 L 400.52809,758.48869 L 400.47309,757.06469 C 400.43009,756.83769 400.17509,756.96769 400.04509,756.88069 C 399.77409,756.75169 399.92609,756.37669 399.91509,756.17069 C 400.22409,756.45269 400.71309,756.52269 401.10809,756.37669 L 401.59109,757.75469 C 402.55109,757.67869 403.56509,757.91169 404.29209,758.61069 C 404.53009,758.13869 404.88309,757.71069 405.30009,757.30969 L 405.26209,757.08169 C 405.25709,756.83769 405.02909,757.04369 404.91009,756.95069 C 404.69809,756.88069 404.74209,756.63769 404.68209,756.46969 L 405.04009,756.22469 C 405.27909,756.32769 405.58209,756.32269 405.83809,756.32269 C 405.90309,756.65869 406.00009,756.97869 406.08109,757.30969 L 405.70709,757.79069 C 405.83809,757.90569 405.91309,758.04169 405.97309,758.18269 C 406.07009,758.60469 405.97809,759.03369 405.69109,759.33769 C 405.98909,759.47469 406.10909,759.77669 406.10309,760.08569 C 405.99009,760.89069 405.06809,760.51769 404.46809,760.60269 C 404.16309,760.60269 404.15209,761.00869 404.45809,761.00869 C 405.06609,761.05969 405.74409,760.94469 406.28709,761.16569 C 406.48809,761.28469 406.65009,761.50069 406.66209,761.70769 L 405.78309,761.70769 z M 400.06209,762.82469 L 400.11609,762.28269 C 399.95809,762.04369 399.75209,761.80569 399.70909,761.54069 L 400.13809,760.98069 C 400.15409,760.71469 399.98009,760.48169 399.85609,760.25469 L 400.39809,759.28269 L 400.81009,759.28269 L 401.30809,758.67069 L 401.77509,759.26769 L 402.22509,759.30069 L 402.76209,760.25469 C 402.64309,760.47669 402.48609,760.67769 402.46409,760.94269 L 402.93009,761.55569 C 402.83309,761.81069 402.68109,762.04369 402.50209,762.26769 C 402.51809,762.45069 402.55609,762.66769 402.54009,762.82469 L 402.05709,762.56469 C 401.57509,762.73369 401.02709,762.73369 400.54409,762.56469 L 400.06209,762.82469 z M 402.59409,764.70669 C 402.08509,764.41369 402.11709,763.85969 402.13309,763.32969 L 403.13609,763.32969 C 403.12609,763.60069 403.16909,763.89869 403.09809,764.14869 C 403.01209,764.36469 402.84409,764.63569 402.59409,764.70669 z M 401.51509,765.88369 L 402.26409,765.88369 L 402.26309,766.55069 L 402.99009,766.55069 L 402.99009,765.87469 L 403.73209,765.87669 L 403.73309,766.55069 L 404.46009,766.55069 L 404.46009,764.03469 L 403.99309,763.60569 L 403.99309,761.83869 L 405.33809,761.83869 C 405.46309,761.97369 405.60909,762.13069 405.82109,762.09869 L 407.18209,762.09869 C 407.11109,761.66369 407.00309,761.22569 406.60209,760.94269 C 406.47209,760.85569 406.32009,760.81369 406.17409,760.75869 C 406.48309,760.51969 406.60209,760.12969 406.49309,759.74969 C 406.41809,759.60469 406.36309,759.45069 406.21109,759.33769 C 406.48309,758.89869 406.53709,758.18769 406.21109,757.75469 C 406.88909,757.33669 406.19609,756.73969 406.24909,756.20869 C 406.50409,756.05169 406.76409,755.85669 406.79209,755.53569 C 406.84109,755.23769 406.74309,754.93969 406.49309,754.75469 C 406.38509,754.68969 406.26609,754.65169 406.13609,754.64169 C 406.16209,754.41269 406.42309,754.19669 406.62409,754.04469 C 407.13409,753.68669 407.95809,753.75769 408.48409,754.02869 C 408.77709,754.19669 409.10709,754.46269 409.19509,754.79269 C 409.24909,754.98269 409.18909,755.17269 409.10209,755.32969 C 408.85809,755.66069 408.44609,755.69369 408.07709,755.61169 C 407.83309,755.52469 407.58909,755.36769 407.44209,755.12969 C 407.25809,756.02969 407.28009,757.17969 408.13209,757.71569 C 408.52709,757.92769 409.07509,757.88969 409.45509,757.67869 C 409.56809,757.61369 409.67709,757.52669 409.77409,757.41869 C 409.69409,758.71869 409.88909,760.04769 411.06009,760.75869 C 411.79709,761.18169 412.90909,761.10569 413.59309,760.60669 L 414.08109,760.19469 C 414.99109,760.18369 415.83209,760.61269 416.29309,761.40969 C 416.43509,761.63669 416.48409,761.90869 416.53709,762.17369 C 417.47009,761.43069 417.90409,760.25469 417.56209,759.11569 C 417.49709,759.02269 417.51909,758.92069 417.63809,758.89269 C 418.50009,758.70369 419.18409,759.28269 419.81809,759.82569 C 419.90509,758.43169 419.39509,757.09769 418.12109,756.46969 C 417.38309,756.11669 416.39109,756.28369 415.77209,756.78469 C 415.14309,757.25469 414.76409,757.89569 414.43309,758.51869 C 414.14009,758.86569 413.65709,758.76169 413.21809,758.72569 C 412.55609,758.60469 411.89509,758.17069 411.58009,757.53169 C 411.49909,757.34169 411.43909,757.14669 411.41209,756.93569 C 411.51509,756.94669 411.63609,757.03869 411.74909,757.08169 C 412.33409,757.30369 412.99609,757.12569 413.44609,756.72969 C 413.83109,756.34469 413.96109,755.73669 413.76109,755.22169 C 413.57109,754.67869 413.05609,754.13069 412.51309,753.93569 C 412.44009,754.51769 412.11209,754.70669 411.82509,754.73269 C 411.02209,754.90769 410.67009,754.13069 410.10509,753.67569 C 409.55709,753.15069 408.55509,752.72769 408.67409,751.80969 C 408.71209,751.40869 408.89609,751.03469 409.27009,750.80169 C 409.41609,750.72069 409.57309,750.66069 409.73609,750.61769 C 408.69609,750.24869 407.18209,750.12969 406.30309,750.93169 C 406.09509,750.59369 406.39309,750.01769 406.47309,749.85969 C 406.70609,749.39669 407.04509,748.97869 407.09009,748.43769 C 406.61309,748.90269 405.97809,749.09869 405.30009,748.95769 C 405.30009,748.95769 404.88809,748.89869 402.99109,747.78369 C 402.52109,747.50869 402.10809,747.29669 402.10809,747.29669 C 402.10809,747.29669 401.94109,747.39169 401.86709,747.42869 C 401.30309,747.81369 400.69609,748.09469 400.09909,748.39869 C 399.83909,748.58369 399.75809,748.89869 399.80109,749.20169 C 399.87709,749.47769 400.14809,749.72769 400.41409,749.83569 L 400.41409,749.94469 L 400.02309,750.65469 C 399.71409,750.69869 399.42109,750.78569 399.11309,750.83969 C 398.09809,750.34669 396.64509,750.18869 395.54909,750.61769 C 395.90709,750.71469 396.30909,750.96869 396.48209,751.34269 C 396.66609,751.73969 396.63909,752.32569 396.35209,752.66669 C 395.78309,753.30669 395.05609,753.68169 394.50809,754.37969 C 394.20409,754.69569 393.74909,754.83769 393.29909,754.71769 C 392.92309,754.61269 392.78109,754.19269 392.81109,753.95169 C 392.09009,754.20669 391.48209,754.97269 391.45009,755.74269 C 391.47209,756.24169 391.71509,756.71269 392.15909,756.97369 C 392.65309,757.23969 393.38109,757.28169 393.85709,756.93569 C 393.85209,757.47769 393.51009,757.93769 393.09209,758.31269 C 392.51309,758.73069 391.66109,758.94169 390.96709,758.63269 C 390.54309,757.92769 390.11009,757.13569 389.34509,756.67469 C 388.71609,756.27369 387.73509,756.15469 387.07309,756.56069 C 385.87909,757.24369 385.44009,758.50769 385.50609,759.84169 C 385.94109,759.49469 386.38509,759.11669 386.89709,758.95969 C 387.13709,758.88669 387.60209,758.80269 387.81609,758.99969 C 387.69609,759.22269 387.63509,759.75369 387.63809,759.94169 C 387.64809,760.81369 388.05009,761.65469 388.78609,762.21169 C 388.82509,761.41569 389.51909,760.62869 390.25609,760.38469 C 390.57109,760.27669 390.91809,760.19969 391.26509,760.23269 C 391.87209,760.86169 392.68009,761.20269 393.59709,761.01869 C 394.30709,760.87769 395.01809,760.25969 395.25109,759.56569 C 395.50009,758.92069 395.55509,758.14469 395.49509,757.41869 C 395.84809,757.80269 396.34709,757.94969 396.85609,757.84669 C 397.44209,757.73269 397.79509,757.09769 397.88109,756.56069 C 397.95209,756.09469 397.91409,755.58469 397.84309,755.12969 C 397.60509,755.45969 397.25209,755.68769 396.84009,755.66669 C 396.57509,755.62269 396.30409,755.56369 396.14609,755.29769 C 396.01009,755.04269 396.08109,754.68469 396.22209,754.45669 C 396.81809,753.71869 397.82209,753.59469 398.70009,753.78469 C 398.92309,753.82169 399.10209,753.95169 399.31809,754.00569 C 399.18809,753.75769 399.14509,753.37769 399.35109,753.15069 C 400.17009,752.33069 401.56409,752.41769 402.61609,752.66669 C 403.45109,752.86769 404.23209,753.20469 404.98009,753.61669 C 404.42709,752.84569 405.11609,752.08069 405.30009,751.35969 C 405.55509,751.75069 405.84309,752.15769 405.98909,752.61269 C 406.07609,751.86969 406.59609,751.09969 407.35009,750.89369 C 407.69709,750.80169 408.14209,750.75869 408.50509,750.86069 C 408.22309,751.25169 408.06109,751.73969 408.19109,752.25469 C 408.23509,752.85669 408.94509,753.20469 408.97209,753.78469 C 408.33209,753.37169 407.38309,753.24169 406.63909,753.52369 C 406.17409,753.72369 405.75609,754.18569 405.56109,754.64169 C 404.20009,753.57769 402.59409,753.05169 400.77209,753.17169 C 400.92909,753.57769 401.20609,753.93569 401.36809,754.34269 L 400.69609,754.36469 L 400.13809,753.31769 C 399.92009,753.39969 399.70909,753.59469 399.65009,753.82169 C 399.60009,754.12069 399.71409,754.39169 399.91509,754.60269 C 399.80109,754.65669 399.66609,754.65669 399.54109,754.67869 C 399.22709,754.76069 398.90109,755.03169 398.85209,755.36769 C 398.82409,755.80569 399.03109,756.17169 399.45109,756.17069 C 399.46109,756.35569 399.38309,756.70269 399.46509,756.85869 C 399.51409,757.11469 399.79009,757.21169 400.00709,757.27169 C 400.04009,757.26069 400.06209,757.28769 400.08409,757.30969 L 400.08409,757.92169 L 399.18009,758.13869 L 398.21809,760.60669 C 398.21809,760.60669 398.90609,761.07969 399.22109,761.37169 C 399.01509,761.55569 399.29109,761.72369 399.33409,761.89269 L 399.68709,762.43469 C 399.63909,762.79269 399.67609,763.18269 399.55709,763.51469 C 399.94309,763.36069 400.28409,763.05269 400.71309,763.06869 L 401.27109,763.13869 L 401.27109,763.60569 L 400.81009,764.03469 L 400.81009,766.55069 L 401.51509,766.55069" /><path
       id="path65"
       style="fill:#155195;fill-opacity:1;fill-rule:nonzero;stroke:none"
       d="M 393.75979,748.34549 L 391.47179,746.85349 L 389.29079,745.28549 L 389.25279,745.28549 L 388.07679,746.64849 C 388.28179,746.80449 388.47179,746.99349 388.69479,747.11449 L 389.30679,746.38649 C 389.71379,746.66349 390.10479,746.98449 390.50079,747.28149 C 390.39179,747.50449 390.16979,747.68349 390.07179,747.91649 L 390.92879,748.49149 L 391.39579,747.89449 C 391.82979,748.17049 392.27379,748.42149 392.70179,748.71349 L 392.49579,749.04949 C 392.75579,749.16849 393.02779,749.35449 393.31579,749.44049" /><path
       id="path69"
       style="fill:#155195;fill-opacity:1;fill-rule:nonzero;stroke:none"
       d="M 412.81209,749.04979 L 412.60609,748.69679 L 413.91309,747.87879 C 414.07009,748.07379 414.23209,748.27479 414.39509,748.47479 L 415.23509,747.89479 L 415.23509,747.84079 L 414.80709,747.28179 C 415.18209,746.96079 415.59909,746.66379 416.00009,746.36579 C 416.23909,746.58179 416.44009,746.84279 416.63009,747.09279 C 416.84709,746.98379 417.03109,746.79279 417.22609,746.64779 L 417.22609,746.59279 L 416.05509,745.26979 L 413.14809,747.29779 L 411.54209,748.32279 L 411.99309,749.42379 C 412.27509,749.32679 412.53509,749.17379 412.81209,749.04979" /><path
       id="path73"
       style="fill:#155195;fill-opacity:1;fill-rule:nonzero;stroke:none"
       d="M 398.29379,744.14699 L 399.25879,745.71399 L 400.18979,744.14399" /><path
       id="path77"
       style="fill:#155195;fill-opacity:1;fill-rule:nonzero;stroke:none"
       d="M 406.97619,744.14699 L 405.09419,744.13099 C 405.36519,744.66799 405.69019,745.17799 406.00519,745.69799 C 406.35719,745.21099 406.65619,744.66299 406.97619,744.14699" /><path
       id="path81"
       style="fill:#155195;fill-opacity:1;fill-rule:nonzero;stroke:none"
       d="M 399.74689,740.88799 C 399.54089,740.49699 399.46989,740.05799 399.42689,739.60299 C 399.58989,739.52099 399.78989,739.58599 399.94789,739.61999 L 400.04489,739.67899 L 400.06189,739.13699 C 399.89389,739.23899 399.67589,739.23399 399.46489,739.22899 C 399.47589,738.99599 399.51989,738.72999 399.50289,738.46399 L 398.98189,738.46399 C 398.97189,738.72399 398.98789,738.97299 399.03589,739.21299 C 398.83589,739.23899 398.60289,739.24499 398.43989,739.13699 L 398.42389,739.67899 C 398.60789,739.59699 398.84689,739.51599 399.05289,739.60299 C 399.03089,740.06299 398.90089,740.48099 398.73789,740.88799 C 398.92789,741.13699 399.14589,741.38199 399.24289,741.66899 C 399.33489,741.38199 399.55189,741.13699 399.74689,740.88799" /><path
       id="path85"
       style="fill:#155195;fill-opacity:1;fill-rule:nonzero;stroke:none"
       d="M 404.03149,735.90959 L 404.03149,731.08259 C 405.13749,731.79259 406.13049,732.80659 406.86149,733.89759 C 407.27449,734.53159 407.64849,735.20459 407.83349,735.90959 L 404.03149,735.90959 z M 401.23849,735.90959 L 397.41549,735.90959 C 398.03849,734.03859 399.48649,732.23159 401.23849,731.10459 L 401.23849,735.90959 z M 407.36649,746.18059 L 397.89749,746.18059 L 397.89749,745.82859 L 398.90449,745.82759 L 397.78049,744.00459 C 397.87849,743.75559 398.03849,743.47959 398.27149,743.28959 C 398.65149,742.97559 399.19349,742.88359 399.68749,743.01359 C 400.14349,743.16559 400.54949,743.55059 400.67449,744.01759 L 399.61849,745.82859 L 402.03549,745.82759 L 402.03549,745.17259 L 402.56149,745.16659 L 401.92749,744.33659 L 402.63249,743.57259 L 403.34249,744.33659 L 402.69049,745.16359 L 403.21249,745.17259 L 403.22849,745.82859 L 405.65049,745.82559 C 405.65049,745.82559 404.93149,744.60759 404.59049,744.01759 C 404.64449,743.80559 404.77449,743.62059 404.91049,743.44159 C 405.30549,742.98159 405.91349,742.86759 406.49349,743.01359 C 406.91649,743.14359 407.38349,743.56659 407.45949,744.01759 L 406.36549,745.82559 L 407.36649,745.82859 L 407.36649,746.18059 z M 407.05249,747.85659 L 408.03949,747.84059 C 408.39149,747.40159 408.71749,746.94059 409.15649,746.55559 C 408.65749,745.82359 408.44549,744.97759 407.87049,744.27759 L 408.78249,744.24559 C 408.80349,743.41959 408.90649,742.63359 409.34649,741.98859 L 404.01549,741.96759 L 404.01549,738.08959 L 408.89649,738.08959 C 408.65149,734.53159 405.96149,731.05059 402.61649,729.75959 C 399.29749,731.07059 396.62849,734.55359 396.38949,738.08959 L 401.25449,738.08959 L 401.25449,741.96759 L 395.96149,741.98859 C 396.38449,742.63959 396.44949,743.44759 396.48249,744.26159 L 397.37649,744.26159 L 397.37649,744.31559 C 396.82349,744.98259 396.61749,745.79059 396.16849,746.49559 C 396.13549,746.51759 396.11349,746.56659 396.14549,746.59359 C 396.59649,746.97259 396.87849,747.43359 397.23049,747.84059 L 400.06249,747.85659 C 400.73949,747.55259 401.40649,747.22259 402.01949,746.76159 C 402.98949,747.24859 403.94949,747.77559 404.88849,748.34559 C 405.34449,748.54459 406.04949,748.69259 406.49349,748.36059 C 406.69449,748.23059 406.89449,748.05259 407.05249,747.85659" /><path
       id="path89"
       style="fill:#155195;fill-opacity:1;fill-rule:nonzero;stroke:none"
       d="M 416.52129,731.54919 C 416.46129,731.01219 416.46129,730.35619 416.52129,729.79719 L 416.13029,729.79719 C 416.26029,730.23019 416.19529,730.76819 416.18529,731.23419 C 416.03329,730.86619 415.93529,730.47019 415.84829,730.07919 L 415.56629,730.07919 C 415.53429,730.44219 415.42529,730.77819 415.32829,731.12119 L 415.30629,729.91219 C 415.32829,729.86819 415.34429,729.82519 415.36529,729.78119 C 415.23029,729.74319 415.07829,729.74319 414.93729,729.72119 L 415.02929,729.91219 C 415.04629,730.38819 415.08929,730.92519 414.99129,731.38019 L 414.93729,731.43519 C 415.12229,731.48919 415.33329,731.48919 415.53429,731.51119 C 415.57229,731.22419 415.66929,730.95219 415.73529,730.67519 C 415.81529,730.96319 415.95229,731.23419 415.97929,731.54919" /><path
       id="path93"
       style="fill:#155195;fill-opacity:1;fill-rule:nonzero;stroke:none"
       d="M 390.76089,731.15819 L 390.76889,729.78219 L 390.83689,729.65119 C 390.68489,729.63019 390.48389,729.68319 390.31589,729.70619 L 390.42489,729.91219 C 390.42989,730.42119 390.51689,731.01219 390.35389,731.47319 L 390.83689,731.38019" /><path
       id="path97"
       style="fill:#155195;fill-opacity:1;fill-rule:nonzero;stroke:none"
       d="M 414.54199,731.15819 C 414.46099,730.59919 414.76899,729.84619 414.20999,729.52119 C 414.03699,729.46219 413.78799,729.38019 413.63099,729.53719 L 413.51699,729.70619 L 413.48399,730.89819 L 413.40799,731.02819 C 413.53899,731.11519 413.72299,731.15819 413.89099,731.19619 L 413.79899,730.97419 L 413.81499,729.81419 C 413.99599,729.58519 414.19899,729.81519 414.24399,729.91819 C 414.24899,729.92719 414.26499,731.10419 414.26499,731.10419 L 414.17299,731.27319 C 414.30799,731.34919 414.48199,731.34319 414.63899,731.38019" /><path
       id="path101"
       style="fill:#155195;fill-opacity:1;fill-rule:nonzero;stroke:none"
       d="M 389.19299,731.34269 L 389.17699,730.07969 C 389.32299,730.06369 389.45899,730.07969 389.55199,730.20969 C 389.70799,730.45869 389.72499,730.86569 389.60599,731.14269 C 389.52399,731.30469 389.36199,731.34269 389.19299,731.34269 z M 389.98099,731.21269 C 390.12099,730.86969 390.12599,730.42169 389.90299,730.11169 C 389.62699,729.70069 389.13399,729.81869 388.69499,729.79669 C 388.95999,730.22969 388.80799,730.86569 388.82499,731.38069 C 388.82499,731.46769 388.74899,731.51569 388.70999,731.58669 C 389.18199,731.57669 389.73099,731.67369 389.98099,731.21269" /><path
       id="path105"
       style="fill:#155195;fill-opacity:1;fill-rule:nonzero;stroke:none"
       d="M 392.17599,731.02859 L 392.19799,730.59959 C 392.07799,730.71859 391.92699,730.90359 391.73199,730.82159 C 391.43899,730.63759 391.50899,730.25359 391.52499,729.94959 C 391.56299,729.79659 391.65599,729.64059 391.80799,729.57559 C 391.94299,729.52059 392.07799,729.58059 392.17599,729.66759 L 392.19799,729.25459 C 391.81299,729.25459 391.44399,729.35159 391.24299,729.72159 C 391.06999,730.05159 391.08599,730.57259 391.30299,730.87659 C 391.45499,731.09259 391.68799,731.16959 391.93799,731.10459 C 392.00799,731.06059 392.08999,731.03359 392.17599,731.02859" /><path
       id="path109"
       style="fill:#155195;fill-opacity:1;fill-rule:nonzero;stroke:none"
       d="M 413.27819,730.67539 L 413.27819,730.59939 C 413.15319,730.68639 413.00119,730.66539 412.86619,730.61639 L 412.82819,730.56239 C 412.86019,730.09539 412.75219,729.57039 412.92019,729.16339 L 412.45919,728.94139 C 412.59519,729.39139 412.50819,729.93239 412.53019,730.43139 C 412.37219,730.42639 412.22019,730.20939 412.12319,730.07939 C 412.10419,730.22839 412.12219,730.38439 412.12219,730.49639 C 412.47419,730.64539 412.82619,730.79739 413.18619,730.97439 C 413.27219,730.92939 413.24519,730.77239 413.27819,730.67539" /><path
       id="path113"
       style="fill:#155195;fill-opacity:1;fill-rule:nonzero;stroke:none"
       d="M 393.48299,729.92749 C 393.40699,730.10149 393.22299,730.25349 393.05399,730.31749 C 393.04399,729.83049 392.97899,729.26549 393.10899,728.81049 L 392.66399,729.01649 C 392.79999,729.46249 392.71299,729.99749 392.73499,730.48549 C 392.64199,730.55149 392.49099,730.59949 392.38199,730.52349 L 392.34399,730.48549 L 392.38199,730.87649 L 393.46199,730.37749" /><path
       id="path117"
       style="fill:#155195;fill-opacity:1;fill-rule:nonzero;stroke:none"
       d="M 411.93299,729.94919 C 411.87299,730.05219 411.72699,730.02519 411.63599,730.00319 C 411.41199,729.89519 411.33099,729.66719 411.31999,729.44519 C 411.30899,729.19619 411.33099,728.92519 411.56499,728.81019 C 411.74899,728.77219 411.87299,728.92519 411.97099,729.05519 L 411.97099,728.65819 C 411.79199,728.58319 411.61299,728.45319 411.39699,728.52819 C 411.13599,728.63719 411.04399,728.90919 410.98399,729.14819 C 410.94599,729.61319 411.13599,730.04719 411.54299,730.26319 C 411.66199,730.32919 411.82999,730.28019 411.93299,730.37719" /><path
       id="path121"
       style="fill:#155195;fill-opacity:1;fill-rule:nonzero;stroke:none"
       d="M 394.11739,730.01949 L 394.04139,729.87349 L 394.05739,728.68049 C 394.10139,728.56749 394.22039,728.49049 394.32339,728.45849 C 394.41039,728.45849 394.50839,728.51149 394.52439,728.60449 C 394.50239,729.02749 394.58939,729.49349 394.45439,729.87349 L 394.86139,729.66749 C 394.74139,729.41549 394.79939,729.08549 394.79539,728.78349 C 394.79439,727.91049 394.12839,728.19249 393.96539,728.32749 C 393.82439,728.46849 393.70539,728.62149 393.72739,728.82649 C 393.69439,729.31449 393.80339,729.85749 393.62939,730.28049 C 393.78639,730.18749 393.96039,730.12849 394.11739,730.01949" /><path
       id="path125"
       style="fill:#155195;fill-opacity:1;fill-rule:nonzero;stroke:none"
       d="M 395.77749,729.31459 C 395.79349,729.00059 395.87449,728.71259 395.94549,728.41959 C 396.05849,728.66459 396.17349,728.90159 396.20549,729.18559 C 396.36249,729.15859 396.57449,729.16259 396.74249,729.10959 L 396.67249,728.84859 L 396.68849,727.51459 L 396.72649,727.34259 C 396.60649,727.29759 396.43949,727.37359 396.31349,727.41259 C 396.28149,727.44459 396.37349,727.50359 396.37349,727.56259 C 396.40049,727.96459 396.40049,728.40359 396.37349,728.81059 C 396.24349,728.46359 396.07049,728.13259 395.97749,727.76359 L 395.75549,727.83959 C 395.72849,728.26259 395.57649,728.66459 395.47849,729.07059 C 395.45749,728.61659 395.43549,728.11659 395.49549,727.67159 C 395.39449,727.71859 395.29349,727.74759 395.20949,727.78359 C 395.17749,727.79859 395.14949,727.80959 395.14949,727.80959 C 395.14949,727.80959 395.15549,727.85159 395.15949,727.89959 C 395.25649,728.36559 395.21349,728.91359 395.19649,729.40759 L 395.14249,729.55359" /><path
       id="path129"
       style="fill:#155195;fill-opacity:1;fill-rule:nonzero;stroke:none"
       d="M 410.44139,728.68099 L 410.27339,729.27699 L 410.16539,728.54999 L 410.44139,728.68099 z M 410.51739,729.66699 C 410.58239,729.18499 410.74539,728.74499 410.90839,728.30699 L 411.00039,728.21399 C 410.85339,728.14399 410.71839,728.05099 410.55539,728.00699 C 410.59939,728.14399 410.56139,728.29499 410.51739,728.41999 C 410.37639,728.39299 410.20339,728.33299 410.07239,728.22999 C 410.04039,728.08799 410.04639,727.91599 410.08939,727.78599 C 409.93139,727.73699 409.79039,727.65499 409.62239,727.63399 C 409.86639,728.14399 409.94239,728.72399 410.03439,729.29299 L 410.01339,729.46199 C 410.18139,729.53199 410.34439,729.61899 410.51739,729.66699" /><path
       id="path133"
       style="fill:#155195;fill-opacity:1;fill-rule:nonzero;stroke:none"
       d="M 408.93359,728.95659 L 408.94959,728.34359 C 409.03159,728.36559 409.12359,728.36559 409.17859,728.45759 C 409.24859,728.57159 409.26959,728.72959 409.23259,728.86459 C 409.21059,729.01159 409.02659,729.02759 408.93359,728.95659 z M 409.58459,728.99559 C 409.64559,728.80559 409.64959,728.53859 409.51459,728.38159 C 409.36759,728.18159 409.12359,728.14959 408.91759,728.06259 C 408.91259,727.84559 408.90659,727.63359 408.98859,727.44859 C 408.87459,727.35659 408.65759,727.42159 408.50559,727.37359 C 408.70659,727.83959 408.59759,728.45259 408.59759,728.97859 L 408.52159,729.12559 C 408.89059,729.10959 409.35659,729.42959 409.58459,728.99559" /><path
       id="path137"
       style="fill:#155195;fill-opacity:1;fill-rule:nonzero;stroke:none"
       d="M 398.96059,728.65849 L 398.96059,726.10949 C 399.18859,725.95149 399.45359,725.88249 399.70959,725.79049 C 401.17259,725.43649 402.82759,725.36149 404.38359,725.56749 C 405.06159,725.68149 405.75659,725.74649 406.32559,726.12549 L 406.30359,728.64349 C 405.81559,728.44749 405.28459,728.33849 404.75859,728.22949 C 402.84859,727.98649 400.67459,727.98649 398.96059,728.65849 z M 418.99859,731.64149 C 418.63159,730.83249 418.76159,729.71549 419.27659,729.01649 C 419.72659,728.92949 420.20959,728.87049 420.69659,728.92549 L 420.69659,731.51149 C 420.09459,731.47249 419.55259,731.57049 418.99859,731.64149 z M 386.32459,731.66249 C 385.78159,731.59149 385.25659,731.48949 384.66559,731.53249 L 384.66559,728.94149 C 385.14159,728.88649 385.61959,728.94649 386.06459,729.03249 C 386.50859,729.68949 386.67159,730.57249 386.45459,731.38049 L 386.32459,731.66249 z M 412.84959,731.25049 L 410.29459,730.01949 C 409.54159,729.70049 408.72259,729.48849 407.83359,729.55349 L 407.83359,726.94449 C 408.58159,726.86949 409.26459,727.04849 409.90459,727.28149 L 412.42059,728.48949 C 413.40859,728.94149 414.46059,729.22249 415.58859,729.33149 C 415.97359,729.40749 416.46159,729.23449 416.78159,729.48349 C 417.07959,729.64649 417.20459,729.94949 417.26459,730.24749 C 417.30259,730.78349 417.36759,731.42449 417.18759,731.92249 C 415.62559,732.09049 414.16759,731.78249 412.84959,731.25049 z M 388.13559,731.92249 C 387.94559,731.41849 388.01059,730.74549 388.07659,730.20949 C 388.13059,729.86149 388.41259,729.47749 388.76459,729.38549 C 390.28359,729.36249 391.68759,729.08649 392.96259,728.47449 C 394.40459,727.84549 395.71759,726.77649 397.45259,726.96649 L 397.45259,729.55349 C 396.60659,729.50449 395.80459,729.67249 395.08259,729.98249 C 392.94659,731.06049 390.81559,732.25849 388.13559,731.92249 z M 395.88659,744.35249 C 395.98259,743.42649 395.73359,742.59549 395.18159,741.91249 C 395.28359,741.75549 395.41859,741.61549 395.54959,741.46249 C 395.80459,741.47949 396.09159,741.41349 396.27659,741.59849 C 396.48359,741.70649 396.61159,741.62149 396.74059,741.45949 C 396.87559,741.42049 396.96659,741.42449 397.15459,741.50049 C 397.15959,741.38249 397.07859,741.28349 396.98659,741.22449 C 396.89559,741.18749 396.86459,741.17949 396.77059,741.17849 C 396.68559,741.03149 396.53659,740.86649 396.31359,740.96449 C 396.21759,741.07449 396.05859,741.03449 395.94559,741.01749 L 395.92359,741.00249 C 396.19459,740.78449 396.43359,740.49749 396.76459,740.42149 C 396.88959,740.48649 397.05659,740.48649 397.19259,740.43749 C 397.40359,740.38949 397.30659,740.11149 397.49059,740.04749 L 397.72959,740.06749 C 397.59859,739.82449 397.30659,739.89549 397.11659,739.74949 C 396.74859,739.68449 396.60159,740.04149 396.29759,740.12249 L 395.90759,740.42149 C 395.93459,740.06249 396.11259,739.71649 396.33559,739.41349 C 396.44959,739.33149 396.60659,739.35849 396.70459,739.24549 C 396.85659,739.16949 396.70459,738.88649 396.94859,738.93049 L 397.20959,738.93049 C 397.07859,738.66349 396.75359,738.78449 396.57459,738.59349 C 396.40059,738.54449 396.22159,738.59949 396.09159,738.70749 C 395.99359,738.83849 395.97759,739.00649 395.96159,739.17449 C 395.59259,739.59749 395.40259,740.09649 395.25159,740.60649 C 395.19359,740.54049 395.13859,740.45949 395.17659,740.40349 C 395.23159,740.32149 395.32559,740.11949 395.17459,739.97449 C 395.12459,739.89949 395.17459,739.74349 395.21859,739.65749 C 395.07859,739.70949 395.01759,739.77149 394.90259,739.88149 C 394.79059,739.91249 394.53359,740.08149 394.78459,740.43749 C 394.82259,740.69749 394.94259,740.91449 395.02859,741.14849 C 395.00159,741.28849 394.87759,741.39249 394.76859,741.50049 C 393.78159,740.64349 392.62059,740.19849 391.48759,739.69449 C 391.20559,739.53849 390.89059,739.28249 390.83659,738.95149 C 390.85259,738.78849 390.93359,738.64249 391.08059,738.55549 C 392.01959,738.25249 392.88159,739.19049 393.78159,738.59349 C 394.48059,738.16049 394.17759,737.12949 395.05059,736.89649 C 394.63259,736.76649 394.15559,736.46749 394.00359,736.02249 C 393.88459,735.50249 393.87459,734.84149 394.22659,734.41749 C 394.93159,733.62049 396.46059,734.39049 396.78059,733.11649 C 396.79759,732.87749 396.78559,732.64949 396.57459,732.49749 C 396.59659,732.17749 396.44359,731.87949 396.14559,731.73249 L 395.94559,731.64149 C 395.99359,731.80349 396.09159,731.99349 395.99959,732.16749 C 395.94059,732.31449 395.81559,732.41749 395.67959,732.49749 C 395.64759,732.29149 395.61459,732.07949 395.49559,731.90049 C 395.34359,731.69049 395.13159,731.62449 394.89859,731.60349 C 395.00759,731.77649 395.00759,732.01549 394.97459,732.22149 C 394.93659,732.32449 394.86059,732.44449 394.75259,732.48249 C 394.60559,732.13449 394.27959,731.80349 393.89559,731.77149 C 394.01459,731.90749 394.05259,732.09649 394.00359,732.27449 C 393.97059,732.64449 393.52159,732.51949 393.39059,732.83449 C 393.13059,733.32249 392.63659,733.63749 392.08459,733.59849 C 392.37159,734.08149 392.83759,734.53649 392.62559,735.18249 C 392.55559,735.50849 392.23659,735.82249 391.91559,735.89349 L 391.37859,735.90949 C 391.27559,736.39649 390.94459,736.95049 390.42459,737.10349 C 390.36459,737.08549 390.31059,737.15549 390.25659,737.10349 C 390.79359,736.40249 390.83159,735.25849 390.44659,734.47849 C 390.09359,733.49149 388.99259,733.28949 388.41259,732.46649 C 391.03659,732.61749 393.14159,731.51649 395.25159,730.43149 C 395.70159,730.25349 396.16159,730.10149 396.67259,730.05749 C 396.72159,730.24149 396.62259,730.50749 396.85659,730.59949 C 397.72959,730.87649 398.63559,730.56649 399.29759,730.00349 C 399.64959,729.77649 399.47659,729.33149 399.51959,728.97849 C 399.87159,728.79949 400.28959,728.78949 400.67459,728.69749 C 402.25259,728.47449 403.96059,728.52849 405.46859,728.86449 C 405.56659,728.89249 405.66859,728.90249 405.74459,728.97849 C 405.78359,729.28249 405.65259,729.65649 405.85959,729.89049 C 406.55359,730.52949 407.50759,730.87049 408.45059,730.57749 C 408.64659,730.46949 408.58659,730.24749 408.59759,730.05749 C 410.03459,730.17149 411.18459,731.08749 412.47559,731.60349 C 413.82659,732.17749 415.26259,732.52549 416.89059,732.42849 L 416.91159,732.44449 C 416.28759,733.30049 415.02459,733.59249 414.76959,734.70049 C 414.52559,735.47549 414.53659,736.45149 415.04659,737.10349 C 414.72559,737.08549 414.40059,736.89049 414.21059,736.58249 C 414.05359,736.37549 414.00459,736.13149 413.92859,735.89349 C 413.50559,735.93649 413.06059,735.87149 412.81259,735.48049 C 412.58359,735.10149 412.54659,734.57449 412.81259,734.19549 L 413.21759,733.58249 C 412.61659,733.64649 412.13359,733.25249 411.84059,732.75849 C 411.66759,732.49349 411.17959,732.55249 411.26559,732.12949 C 411.27659,732.00449 411.29259,731.87949 411.39659,731.79249 C 411.16859,731.78249 410.91859,731.92249 410.74059,732.12949 C 410.61559,732.22149 410.63659,732.44949 410.47959,732.46649 C 410.23559,732.29749 410.28459,731.96149 410.33359,731.71549 L 410.38759,731.62449 C 410.23559,731.58649 410.06159,731.67849 409.92059,731.75449 C 409.70359,731.93949 409.64459,732.19449 409.62259,732.46649 C 409.50859,732.49349 409.39459,732.35149 409.32459,732.25849 C 409.24859,732.12349 409.23259,731.94549 409.26959,731.79249 L 409.34659,731.64149 C 409.06459,731.72249 408.76659,731.95549 408.71159,732.25849 C 408.71159,732.34049 408.67959,732.41149 408.69059,732.49749 C 408.48959,732.66049 408.45659,732.91049 408.50559,733.15349 C 408.94959,734.60749 411.19059,733.35449 411.33659,735.09049 C 411.43959,735.69149 411.31459,736.26649 410.79959,736.61949 C 410.62559,736.73949 410.43059,736.80349 410.24159,736.87949 C 411.09259,737.16749 410.81059,738.27449 411.63559,738.66949 C 412.57859,739.11449 413.37059,738.19249 414.28159,738.57749 C 414.44959,738.69149 414.50959,738.87649 414.44959,739.05949 C 413.93959,739.92749 412.91459,739.94949 412.16059,740.42149 C 411.60259,740.74649 411.01659,741.01749 410.51759,741.48349 C 410.40359,741.41349 410.32259,741.29449 410.25759,741.18749 C 410.30059,740.89849 410.46359,740.66549 410.51759,740.38349 C 410.68459,740.17349 410.58259,740.00449 410.42359,739.93249 C 410.33059,739.83849 410.19859,739.69649 410.07259,739.65749 C 410.08859,739.74349 410.14859,739.81449 410.12759,739.91649 C 410.00259,740.00449 410.00259,740.16149 410.03459,740.29149 C 410.12759,740.37249 410.05659,740.47049 410.05159,740.56849 L 410.01259,740.60649 C 409.88259,740.06249 409.64459,739.56949 409.28659,739.11449 C 409.30259,738.95149 409.28659,738.79449 409.15659,738.68549 C 409.03759,738.56049 408.83659,738.56049 408.67359,738.59349 C 408.50059,738.77749 408.18559,738.67549 408.05559,738.93049 C 408.19659,738.95149 408.36459,738.88149 408.46759,738.98449 C 408.46159,739.13049 408.55959,739.26649 408.69059,739.31949 C 408.74959,739.38049 408.84659,739.33649 408.91759,739.38049 C 409.15059,739.68949 409.30259,740.03149 409.37859,740.40549 L 409.32459,740.40549 C 409.05859,740.13449 408.72859,740.04049 408.45059,739.79949 C 408.27759,739.69549 408.09459,739.73249 407.96159,739.85949 C 407.90159,739.84149 407.62059,739.88549 407.53459,740.06749 C 407.63759,740.05249 407.79459,740.00849 407.87059,740.10749 C 407.85959,740.23649 407.94659,740.34449 408.03959,740.42149 C 408.18959,740.50649 408.33259,740.48249 408.44659,740.40649 C 408.55159,740.38049 408.65459,740.40249 408.74959,740.51449 C 408.95559,740.65449 409.16759,740.82749 409.34659,741.00249 C 409.05859,741.20149 408.85759,740.76249 408.59759,741.01749 L 408.48359,741.16449 C 408.33759,741.18049 408.19159,741.25049 408.11459,741.39249 C 408.10359,741.41949 408.08759,741.44549 408.09359,741.48349 C 408.22359,741.47249 408.34359,741.43049 408.48359,741.44549 C 408.56459,741.56049 408.67959,741.59849 408.80359,741.61549 C 408.95559,741.60949 409.08559,741.56049 409.19459,741.46249 C 409.41159,741.52149 409.66059,741.33249 409.81259,741.56049 L 410.08859,741.89649 C 409.54659,742.57949 409.27559,743.43649 409.40059,744.33649 C 409.86159,744.33149 410.31659,744.33149 410.74059,744.40749 C 410.66459,743.76749 410.66959,742.99749 410.59359,742.35749 C 410.59359,742.35749 411.66059,742.65449 412.91959,743.19749 C 413.02859,742.24249 413.47859,741.43449 413.83659,740.58849 C 414.33559,741.08349 414.92159,741.45749 415.36559,742.00449 C 416.32659,740.89849 417.39359,739.80949 417.82259,738.46349 C 417.93059,737.62249 417.94659,736.62549 418.84759,736.22949 C 418.99459,736.15349 419.18459,736.13649 419.35259,736.16949 C 419.46559,736.21349 419.54159,736.32749 419.57459,736.43449 C 419.65559,737.14549 419.15159,737.66149 418.94559,738.27949 C 418.61459,738.84249 418.50559,739.78149 418.96059,740.32849 C 419.50959,741.04449 420.59959,740.44349 421.15859,741.13149 C 421.28759,741.26149 421.35859,741.42449 421.43959,741.57649 C 421.52159,741.22949 421.38059,740.93149 421.34759,740.60649 C 421.52659,740.66049 421.72259,740.77949 421.90559,740.86649 C 422.08059,740.98449 422.25859,741.16449 422.37259,741.33249 C 422.02559,740.48649 422.12859,739.17449 420.95659,738.95149 C 420.62659,738.91349 420.27359,738.93049 419.96959,739.00649 C 419.83459,739.00649 419.70459,738.95149 419.63359,738.83849 L 419.63359,738.61549 C 419.94359,737.64449 420.92959,736.67949 420.28459,735.59449 C 419.98059,735.22649 419.50959,735.13449 419.05359,735.24249 C 418.67359,735.34449 418.33259,735.58849 418.05059,735.89349 L 417.99059,735.70849 C 417.88259,734.45049 418.01259,733.01249 419.18459,732.36649 C 419.28659,732.35149 419.37359,732.30249 419.48159,732.29749 L 419.31459,732.10749 L 419.35259,732.06949 C 419.92659,731.95549 420.55559,731.97849 421.14159,732.05349 L 421.15859,728.48949 C 420.26259,728.35549 419.33559,728.48949 418.49459,728.65849 C 417.86059,728.30049 417.63259,727.56249 416.96659,727.28149 C 416.85759,727.18349 416.86259,727.02049 416.89059,726.89149 C 416.92259,726.79349 416.97759,726.70649 417.05759,726.63149 C 416.75959,726.66349 416.46159,726.86449 416.33059,727.15249 C 416.29359,727.24349 416.26059,727.33549 416.22259,727.43349 C 416.02159,727.34649 415.92959,727.11849 415.92459,726.90749 L 415.94059,726.72249 C 415.60959,726.84249 415.40959,727.21649 415.38259,727.56249 C 415.18659,727.53049 415.08959,727.28749 415.02959,727.11249 L 415.00859,726.94449 C 414.71459,727.31849 414.61759,728.07249 414.87859,728.55049 L 415.02959,728.75649 C 414.58459,728.75649 414.16759,728.59449 413.74359,728.48949 C 411.58559,727.92749 409.84459,726.01849 407.36659,726.53849 L 407.35059,727.48749 C 407.16059,727.49849 406.96559,727.41249 406.79159,727.31849 L 406.79159,725.90349 C 406.01059,725.20849 404.91559,725.19849 403.90159,725.02549 C 402.07359,724.93349 400.14359,724.92249 398.62459,725.75149 L 398.49459,725.88249 L 398.49459,727.30249 C 398.35859,727.42249 398.15259,727.44449 397.97359,727.50349 L 397.93559,727.50349 L 397.91859,726.55449 L 397.88159,726.51649 C 396.88359,726.34349 395.91259,726.55449 395.06659,726.90749 L 392.45859,728.17649 C 391.76959,728.45749 391.03659,728.68649 390.29459,728.77249 C 390.66259,728.31249 390.63659,727.54749 390.38659,727.03749 L 390.31659,726.94449 C 390.26659,727.18949 390.21259,727.44849 389.98059,727.60149 C 389.89359,727.41249 389.86059,727.16749 389.71959,726.98249 C 389.64359,726.86449 389.51859,726.78849 389.39959,726.73849 C 389.39459,726.97749 389.38359,727.33549 389.10059,727.44849 C 389.01959,727.09749 388.72159,726.73849 388.35859,726.64649 L 388.26559,726.64649 C 388.42359,726.79949 388.50459,727.03149 388.41259,727.24349 C 387.73959,727.53049 387.45859,728.32249 386.82859,728.68049 C 385.99359,728.51149 385.07759,728.37149 384.18259,728.51149 L 384.18259,732.05349 C 384.76859,731.96149 385.44559,731.97849 386.00959,732.10749 L 386.02659,732.12949 L 385.84259,732.31449 C 386.49259,732.36649 386.98059,733.06149 387.16559,733.62049 C 387.40359,734.29249 387.41959,735.15549 387.29459,735.89349 C 387.11659,735.77349 386.97059,735.59949 386.79059,735.48049 C 386.37259,735.19349 385.73359,735.10149 385.28259,735.38849 C 384.95759,735.63749 384.81759,735.98949 384.83359,736.39649 C 384.90859,737.24349 385.44059,737.90549 385.71159,738.66949 C 385.73859,738.80449 385.67959,738.92349 385.55959,738.98449 C 384.89759,738.95749 384.11759,738.81049 383.63959,739.39649 C 383.16859,739.94449 383.27659,740.73549 382.97259,741.35449 C 383.21659,740.96449 383.61259,740.78449 383.97659,740.60649 C 383.96559,740.92049 383.82459,741.26649 383.90059,741.59849 C 384.02459,741.26149 384.34459,740.89849 384.70259,740.83349 C 385.31559,740.70349 386.05859,740.84949 386.45459,740.23649 C 387.20859,738.89749 385.88559,737.86649 385.74959,736.61949 C 385.74459,736.48849 385.78159,736.38049 385.85759,736.28349 C 385.96659,736.16449 386.13459,736.12549 386.28659,736.16949 C 387.71859,736.55449 387.20259,738.17149 387.73959,739.13649 C 388.30359,740.16749 389.11259,741.09349 389.92059,742.02649 C 390.39159,741.51749 390.94459,741.06149 391.47159,740.60649 C 391.81259,741.45149 392.29559,742.23749 392.36559,743.19749 C 393.10359,742.86249 393.90559,742.66649 394.65459,742.35749 C 394.64359,743.03049 394.62759,743.75149 394.52459,744.40749 C 394.94759,744.31049 395.43559,744.37449 395.88659,744.35249" /><path
       id="path141"
       style="fill:#155195;fill-opacity:1;fill-rule:nonzero;stroke:none"
       d="M 400.09939,727.86149 C 400.12639,727.56949 400.18039,727.28749 400.26739,727.02049 C 400.34939,727.26449 400.40839,727.51949 400.43539,727.78649 C 400.60939,727.75849 400.84239,727.76349 401.03239,727.71049 L 400.95639,727.50349 C 400.97239,726.99449 400.90739,726.45049 401.01139,725.97949 L 400.60339,726.03349 C 400.70139,726.42949 400.65239,726.95049 400.64239,727.39549 C 400.53339,727.05949 400.39239,726.73349 400.39839,726.34849 C 400.32239,726.33849 400.20239,726.34349 400.11539,726.37049 C 400.09339,726.77149 399.95839,727.12449 399.87639,727.50349 C 399.83339,727.09149 399.79039,726.58649 399.91539,726.20349 L 399.51939,726.29349 C 399.68739,726.70649 399.60039,727.24849 399.59539,727.71049 C 399.57339,727.80149 399.57339,727.91049 399.51939,727.99149" /><path
       id="path145"
       style="fill:#155195;fill-opacity:1;fill-rule:nonzero;stroke:none"
       d="M 405.72869,727.96989 C 405.59869,727.50889 405.66369,726.93889 405.67469,726.44089 C 405.70169,726.40189 405.68569,726.33789 405.70769,726.29389 C 405.58769,726.22889 405.45769,726.19189 405.31669,726.17989 C 405.35969,726.61989 405.39769,727.07489 405.35469,727.52589 C 405.26269,727.14089 405.08369,726.78789 405.07769,726.37089 C 404.98669,726.35389 404.90969,726.31589 404.81169,726.31089 C 404.78569,726.70189 404.67169,727.05989 404.55169,727.41189 C 404.54669,726.96589 404.48169,726.44689 404.61169,726.03289 C 404.47569,725.97989 404.32469,725.98489 404.18269,725.95889 C 404.35169,726.41389 404.24269,726.98789 404.27469,727.50389 L 404.18269,727.70989 C 404.37269,727.73689 404.57869,727.72989 404.75769,727.78589 C 404.81169,727.69889 404.80669,727.56289 404.83469,727.44889 L 404.96369,726.98189 C 405.02369,727.27089 405.14369,727.53089 405.14869,727.83989 C 405.34969,727.87189 405.52769,727.94789 405.72869,727.96989" /><path
       id="path149"
       style="fill:#155195;fill-opacity:1;fill-rule:nonzero;stroke:none"
       d="M 402.31779,727.31889 C 402.17079,727.43389 401.95479,727.49189 401.77479,727.41189 L 401.77479,726.94489 C 401.89979,726.92789 402.08479,726.88489 402.18779,726.98189 L 402.20379,726.63089 C 402.07979,726.69089 401.95479,726.74989 401.79679,726.72289 L 401.77479,726.12589 C 401.92179,726.07189 402.13379,726.07189 402.27979,726.12589 L 402.39379,726.17989 L 402.39379,725.86489 C 402.03079,725.84989 401.68879,725.89289 401.34679,725.94189 C 401.43879,726.09989 401.47779,726.27789 401.46079,726.47889 C 401.42879,726.87989 401.53679,727.33489 401.36779,727.67189 L 402.31779,727.61789" /><path
       id="path153"
       style="fill:#155195;fill-opacity:1;fill-rule:nonzero;stroke:none"
       d="M 403.90149,727.67179 C 403.72249,727.23279 403.85249,726.66779 403.78749,726.17979 C 403.74349,726.05579 403.63549,725.94179 403.51049,725.88179 C 402.88849,725.71379 402.72949,726.14279 402.72949,726.14279 C 402.67049,726.63079 402.77849,727.18379 402.63249,727.63379 L 403.09849,727.63379 C 402.96849,727.22179 403.03349,726.70679 403.04449,726.25679 C 403.08249,726.15879 403.18549,726.13779 403.26749,726.10979 C 403.38549,726.10479 403.48949,726.16879 403.54849,726.27779 C 403.57049,726.69079 403.59249,727.15679 403.52649,727.56279 L 403.47249,727.63379 C 403.58749,727.67679 403.77149,727.63379 403.90149,727.67179" /><path
       id="path157"
       style="fill:#555253;fill-opacity:1;fill-rule:nonzero;stroke:none"
       d="M 435.01869,756.53929 L 438.23269,756.53929 L 438.23269,747.32229 L 442.57869,747.32229 L 442.57869,744.86229 L 435.01869,744.86229" /><path
       id="path161"
       style="fill:#555253;fill-opacity:1;fill-rule:nonzero;stroke:none"
       d="M 448.05629,746.83019 C 449.53229,746.83019 449.69629,748.30619 449.69629,749.79919 C 449.69629,751.30719 449.53229,752.78319 448.05629,752.78319 C 446.67829,752.78319 446.41629,751.30719 446.41629,749.79919 C 446.41629,748.30619 446.67829,746.83019 448.05629,746.83019 z M 448.05629,754.98119 C 451.32029,754.98119 452.84529,752.66919 452.84529,749.79919 C 452.84529,746.94519 451.32029,744.63219 448.05629,744.63219 C 444.79229,744.63219 443.26729,746.94519 443.26729,749.79919 C 443.26729,752.66919 444.79229,754.98119 448.05629,754.98119" /><path
       id="path165"
       style="fill:#555253;fill-opacity:1;fill-rule:nonzero;stroke:none"
       d="M 460.14269,750.94659 C 460.14269,751.78359 459.94569,752.45559 459.19169,752.45559 C 458.60069,752.45559 457.97769,751.86559 457.53469,751.45459 L 457.53469,744.86259 L 454.45169,744.86259 L 454.45169,754.75159 L 457.53469,754.75159 L 457.53469,753.42359 C 458.63369,754.34159 459.43769,754.98159 460.78269,754.98159 C 463.22569,754.98159 463.22569,753.01259 463.22569,751.84859 L 463.22569,744.86259 L 460.14269,744.86259" /><path
       id="path169"
       style="fill:#555253;fill-opacity:1;fill-rule:nonzero;stroke:none"
       d="M 471.08149,751.88159 C 470.65549,752.34059 470.27749,752.68459 469.65449,752.68459 C 468.21149,752.68459 468.14549,750.91359 468.14549,749.68359 C 468.14549,748.78159 468.24349,746.92859 469.62149,746.92859 C 470.29349,746.92859 470.67149,747.30559 471.08149,747.68359 L 471.08149,751.88159 z M 474.16449,744.86259 L 471.08149,744.86259 L 471.08149,745.91159 C 469.99949,744.81259 469.12949,744.63259 468.35849,744.63259 C 465.53849,744.63259 464.99749,747.45359 464.99749,749.94659 C 464.99749,752.16059 465.53849,754.98159 468.44049,754.98159 C 469.65449,754.98159 470.29349,754.42359 471.08149,753.75159 L 471.08149,757.60559 L 474.16449,757.60559" /><path
       id="path173"
       style="fill:#555253;fill-opacity:1;fill-rule:nonzero;stroke:none"
       d="M 480.56029,746.83019 C 482.03629,746.83019 482.20029,748.30619 482.20029,749.79919 C 482.20029,751.30719 482.03629,752.78319 480.56029,752.78319 C 479.18229,752.78319 478.92029,751.30719 478.92029,749.79919 C 478.92029,748.30619 479.18229,746.83019 480.56029,746.83019 z M 480.56029,754.98119 C 483.82429,754.98119 485.34929,752.66919 485.34929,749.79919 C 485.34929,746.94519 483.82429,744.63219 480.56029,744.63219 C 477.29629,744.63219 475.77229,746.94519 475.77229,749.79919 C 475.77229,752.66919 477.29629,754.98119 480.56029,754.98119" /><path
       id="path177"
       style="fill:#555253;fill-opacity:1;fill-rule:nonzero;stroke:none"
       d="M 492.64709,750.94659 C 492.64709,751.78359 492.45009,752.45559 491.69509,752.45559 C 491.10509,752.45559 490.48209,751.86559 490.03909,751.45459 L 490.03909,744.86259 L 486.95609,744.86259 L 486.95609,754.75159 L 490.03909,754.75159 L 490.03909,753.42359 C 491.13809,754.34159 491.94109,754.98159 493.28709,754.98159 C 495.73009,754.98159 495.73009,753.01259 495.73009,751.84859 L 495.73009,744.86259 L 492.64709,744.86259" /><path
       id="path181"
       style="fill:#555253;fill-opacity:1;fill-rule:nonzero;stroke:none"
       d="M 435.95349,731.23399 C 436.16649,730.41399 436.82249,729.42999 438.38049,729.42999 C 439.85649,729.42999 440.64349,730.47899 440.64349,731.46299 C 440.64349,732.72599 439.84049,733.11999 439.41349,733.31699 L 436.59349,734.62899 C 435.49449,735.13699 434.85449,735.97399 434.85449,737.18699 C 434.85449,739.46699 436.83949,740.38499 438.51149,740.38499 C 440.16849,740.38499 441.52949,739.81099 442.08749,738.25299 L 440.61149,737.76099 C 440.33249,738.85999 439.34849,739.17199 438.51149,739.17199 C 437.06849,739.17199 436.46149,738.35099 436.46149,737.28499 C 436.46149,736.13799 437.24949,735.77699 438.00349,735.44899 L 440.10249,734.52999 C 440.82449,734.21899 442.25149,733.51299 442.25149,731.49599 C 442.25149,730.39699 441.57849,728.21599 438.24949,728.21599 C 435.69149,728.21599 434.73949,729.82299 434.49349,730.69299" /><path
       id="path185"
       style="fill:#555253;fill-opacity:1;fill-rule:nonzero;stroke:none"
       d="M 444.67789,739.77829 L 446.12189,740.38529 L 446.12189,737.38429 L 448.40089,737.38429 L 448.40089,736.30129 L 446.12189,736.30129 L 446.12189,730.95529 C 446.12189,730.15129 446.20389,729.41329 447.26989,729.41329 C 447.72889,729.41329 447.97389,729.49529 448.48289,729.69229 L 448.48289,728.54429 C 447.94189,728.33129 447.36789,728.26529 447.12189,728.26529 C 445.03889,728.26529 444.67789,729.69229 444.67789,730.77429 L 444.67789,736.30129 L 443.21789,736.30129 L 443.21789,737.38429 L 444.67789,737.38429" /><path
       id="path189"
       style="fill:#555253;fill-opacity:1;fill-rule:nonzero;stroke:none"
       d="M 450.74589,733.33309 C 450.74589,731.43109 451.27089,729.41309 453.32089,729.41309 C 455.37089,729.41309 455.89589,731.43109 455.89589,733.33309 C 455.89589,735.20309 455.37089,737.20309 453.32089,737.20309 C 451.27089,737.20309 450.74589,735.20309 450.74589,733.33309 z M 449.23689,733.31709 C 449.23689,735.80909 450.35189,738.35109 453.32089,738.35109 C 456.76489,738.35109 457.40389,735.26809 457.40389,733.31709 C 457.40389,730.80809 456.28889,728.26509 453.32089,728.26509 C 449.87689,728.26509 449.23689,731.34909 449.23689,733.31709" /><path
       id="path193"
       style="fill:#555253;fill-opacity:1;fill-rule:nonzero;stroke:none"
       d="M 464.62029,735.41599 C 464.50529,735.80999 464.11229,737.20299 462.73429,737.20299 C 460.68429,737.20299 460.15929,735.20299 460.15929,733.33299 C 460.15929,731.38099 460.68429,729.41299 462.48829,729.41299 C 463.57029,729.41299 464.30829,730.05299 464.70229,731.18499 L 465.96529,730.77499 C 465.37429,729.41299 464.62029,728.26499 462.48829,728.26499 C 459.29029,728.26499 458.65029,731.15199 458.65029,733.31699 C 458.65029,735.26799 459.29029,738.35199 462.73429,738.35199 C 464.21029,738.35199 465.24329,737.66299 465.91629,735.80999" /><path
       id="path197"
       style="fill:#555253;fill-opacity:1;fill-rule:nonzero;stroke:none"
       d="M 468.96629,741.20519 L 468.96629,733.84119 L 472.70529,738.15519 L 474.54229,738.15519 L 470.52429,733.67719 L 474.82129,728.46219 L 472.95129,728.46219 L 468.99929,733.44819 L 468.96629,733.44819 L 468.96629,728.46219 L 467.52229,728.46219 L 467.52229,741.20519" /><path
       id="path201"
       style="fill:#555253;fill-opacity:1;fill-rule:nonzero;stroke:none"
       d="M 480.65869,740.13919 L 487.67769,740.13919 L 487.67769,738.92519 L 482.16769,738.92519 L 482.16769,735.12119 L 487.39869,735.12119 L 487.39869,733.90719 L 482.16769,733.90719 L 482.16769,729.67619 L 487.84169,729.67619 L 487.84169,728.46219 L 480.65869,728.46219" /><path
       id="path205"
       style="fill:#555253;fill-opacity:1;fill-rule:nonzero;stroke:none"
       d="M 489.02269,738.15489 L 490.71169,738.15489 L 492.41769,735.28489 C 492.58169,735.02189 492.76169,734.67789 492.89269,734.39889 L 492.92569,734.39889 C 493.05669,734.67789 493.23769,735.02189 493.40169,735.28489 L 495.18869,738.15489 L 496.76369,738.15489 L 493.84469,733.62789 L 497.00969,728.46189 L 495.28769,728.46189 L 493.17269,732.08689 C 493.05669,732.28389 492.94269,732.52989 492.89269,732.67689 L 492.86069,732.67689 C 492.81069,732.56189 492.71269,732.33289 492.54869,732.08689 L 490.26869,728.46189 L 488.62869,728.46189 L 491.85969,733.59589" /><path
       id="path209"
       style="fill:#555253;fill-opacity:1;fill-rule:nonzero;stroke:none"
       d="M 503.68469,735.41599 C 503.56969,735.80999 503.17569,737.20299 501.79869,737.20299 C 499.74869,737.20299 499.22369,735.20299 499.22369,733.33299 C 499.22369,731.38099 499.74869,729.41299 501.55269,729.41299 C 502.63469,729.41299 503.37269,730.05299 503.76669,731.18499 L 505.02869,730.77499 C 504.43869,729.41299 503.68469,728.26499 501.55269,728.26499 C 498.35469,728.26499 497.71469,731.15199 497.71469,733.31699 C 497.71469,735.26799 498.35469,738.35199 501.79869,738.35199 C 503.27469,738.35199 504.30769,737.66299 504.97969,735.80999" /><path
       id="path213"
       style="fill:#555253;fill-opacity:1;fill-rule:nonzero;stroke:none"
       d="M 506.45589,741.20519 L 507.89889,741.20519 L 507.89889,736.58019 C 508.68589,737.28519 509.70289,738.35119 511.17889,738.35119 C 512.67189,738.35119 513.58989,737.44919 513.57289,735.61319 L 513.57289,728.46219 L 512.12989,728.46219 L 512.12989,735.08819 C 512.12989,736.07219 511.90089,737.03919 510.70389,737.03919 C 509.35789,737.03919 508.48889,736.05519 507.89889,735.36719 L 507.89889,728.46219 L 506.45589,728.46219" /><path
       id="path217"
       style="fill:#555253;fill-opacity:1;fill-rule:nonzero;stroke:none"
       d="M 520.01829,733.34959 C 517.95229,733.34959 516.73829,732.69359 516.73829,731.23359 C 516.73829,730.34859 517.16429,729.51159 518.36229,729.51159 C 518.95229,729.51159 519.73929,729.65959 521.06829,731.16859 L 521.06829,733.34959 L 520.01829,733.34959 z M 515.75429,735.92459 C 516.19729,737.08859 516.91829,738.35159 519.26429,738.35159 C 522.13429,738.35159 522.51129,736.39959 522.51129,734.69459 L 522.51129,729.59359 C 522.51129,729.38059 522.51129,729.00359 522.59229,728.46259 L 521.06829,728.46259 L 521.06829,730.10259 L 521.03529,730.10259 C 520.10029,728.87259 519.14929,728.36359 518.00129,728.36359 C 516.00029,728.36359 515.29429,729.83959 515.29429,731.10259 C 515.29429,733.31659 517.00029,734.43159 519.67329,734.43159 L 521.06829,734.43159 L 521.06829,735.05459 C 521.06829,735.71059 521.06829,737.26859 519.18129,737.26859 C 517.98429,737.26859 517.42629,736.59659 517.00029,735.54659" /><path
       id="path221"
       style="fill:#555253;fill-opacity:1;fill-rule:nonzero;stroke:none"
       d="M 524.67549,738.15489 L 526.11949,738.15489 L 526.11949,736.58089 C 526.90549,737.28589 527.92249,738.35189 529.39849,738.35189 C 530.89149,738.35189 531.80949,737.44989 531.79349,735.61289 L 531.79349,728.46189 L 530.34949,728.46189 L 530.34949,735.08789 C 530.34949,736.07189 530.12049,737.03989 528.92349,737.03989 C 527.57849,737.03989 526.70949,736.05589 526.11949,735.36689 L 526.11949,728.46189 L 524.67549,728.46189" /><path
       id="path225"
       style="fill:#555253;fill-opacity:1;fill-rule:nonzero;stroke:none"
       d="M 537.12269,733.18549 C 538.33669,733.18549 539.32069,733.90749 539.32069,735.33349 C 539.32069,736.67849 538.38569,737.36749 537.12269,737.36749 C 535.85969,737.36749 534.92469,736.67849 534.92469,735.33349 C 534.92469,733.90749 535.90869,733.18549 537.12269,733.18549 z M 536.08969,729.70849 C 535.26969,729.18449 534.64669,728.59349 534.64669,727.75749 C 534.64669,726.54349 536.28669,726.23149 537.45069,726.23149 C 539.07469,726.23149 539.95969,726.92049 539.95969,727.80649 C 539.95969,728.42949 539.71469,728.85549 538.40269,729.16749 L 536.08969,729.70849 z M 541.64969,737.17049 L 539.91069,737.17049 C 540.46869,736.62949 540.69869,736.10449 540.69869,735.21949 C 540.69869,733.84149 539.79569,732.20149 537.04069,732.20149 C 536.69669,732.20149 536.46669,732.23449 536.28669,732.28349 C 535.95869,732.00449 535.81069,731.84049 535.81069,731.54549 C 535.81069,731.20149 535.94169,731.06949 537.07369,730.80749 L 538.64869,730.44649 C 540.09069,730.11849 541.40369,729.64349 541.40369,727.90449 C 541.40369,725.83849 539.17269,725.14949 537.20469,725.14949 C 535.17169,725.14949 533.26869,725.80549 533.26869,727.57649 C 533.26869,728.85549 534.08869,729.51149 535.10569,730.13549 C 534.87569,730.24949 534.43369,730.46349 534.43369,731.10249 C 534.43369,731.80849 534.89269,732.15249 535.40069,732.52949 C 534.77769,732.75949 533.54769,733.57949 533.54769,735.25149 C 533.54769,736.92449 534.71169,738.35149 537.07369,738.35149 C 537.76269,738.35149 538.25469,738.26949 538.68069,738.15449 L 541.64969,738.15449" /><path
       id="path229"
       style="fill:#555253;fill-opacity:1;fill-rule:nonzero;stroke:none"
       d="M 548.73379,734.02179 C 548.73379,735.75979 547.94679,737.20379 546.40579,737.20379 C 544.89679,737.20379 544.07579,736.00679 543.87979,734.02179 L 548.73379,734.02179 z M 543.87979,732.93979 C 543.94479,730.33179 545.15879,729.41379 546.45479,729.41379 C 548.02879,729.41379 548.63579,730.59379 548.78279,731.11879 L 550.04579,730.67579 C 549.42279,729.18379 548.22579,728.26579 546.45479,728.26579 C 543.01079,728.26579 542.37079,731.34879 542.37079,733.31679 C 542.37079,735.26879 543.01079,738.35179 546.45479,738.35179 C 549.24179,738.35179 550.24279,735.94079 550.24279,733.66079 L 550.24279,732.93979" /></g></svg>